<svg width="35" height="35" viewBox="0 0 35 35" fill="none" xmlns="http://www.w3.org/2000/svg">
<g clip-path="url(#clip0_733_76)">
<rect x="5" y="11" width="15" height="21" fill="#D9D9D9"/>
<rect x="13" y="18" width="20" height="14" rx="5" fill="#D9D9D9"/>
<rect x="2" y="26" width="14" height="6" fill="#D9D9D9"/>
<path d="M20 17V15L22 17.5L23 18H21H20V17Z" fill="#D9D9D9"/>
<path d="M19 11V9L19.5 10L20.5 11.5L20 12H19V11Z" fill="#D9D9D9"/>
<path d="M5 11L6 10H5.5L4.5 11.5L5 12V11Z" fill="#D9D9D9"/>
<path d="M3.79666 31.4504C4.40437 27.9659 5.6493 23.53 6.86793 22.0093C6.36308 23.3558 5.94032 24.986 6.10858 26.4375C6.22404 27.4336 7.35561 28.746 7.2054 29.6977C7.14421 30.0855 6.91884 30.5423 6.70523 31.0508C6.50747 31.5216 6.85408 32.042 7.36471 32.042H17.7475C18.015 32.042 18.2373 31.899 18.3601 31.6953C17.9478 31.1188 17.6002 30.4987 17.3216 29.84C16.8166 28.646 16.5605 27.3782 16.5605 26.0717C16.5605 24.7653 16.8166 23.4974 17.3216 22.3034C17.8092 21.1506 18.5071 20.1154 19.3958 19.2268C20.0817 18.5408 20.8551 17.9692 21.7023 17.5196C21.6518 17.4346 21.6006 17.3502 21.5476 17.2668C20.3319 15.3525 18.7091 14.7 16.8953 14.1261C16.0761 13.8669 15.2023 14.3155 14.916 15.1378C14.4151 16.5769 13.6532 19.081 13.1314 20.8278C12.9607 21.3994 12.1513 21.3994 11.9806 20.8278C11.4589 19.081 10.6969 16.577 10.1961 15.1378C9.90983 14.3155 9.03605 13.8669 8.21679 14.1261C6.40309 14.6999 4.78027 15.3525 3.56452 17.2668C2.19985 19.4157 1.68495 22.0765 1.13832 24.5892C0.661956 26.7789 0.29372 29.0013 0.00594632 31.2365C-0.0490589 31.6638 0.284583 32.042 0.71534 32.042H3.0925C3.43977 32.042 3.73702 31.7925 3.79666 31.4504Z" fill="#1EA6C6"/>
<path d="M12.5561 0.169922C10.4906 0.169922 8.48171 1.36552 7.19301 3.02898C5.76449 4.87293 5.97092 7.06076 5.41847 9.20994C5.21242 10.0116 4.79113 10.7248 4.5 11.5C5.92546 12.1299 7.60851 11.6823 8.62963 11.1465C9.68169 12.0586 11.0544 13.6147 12.5561 13.6147C14.0578 13.6147 15.4306 12.0586 16.4826 11.1465C17.5037 11.6823 19.0745 12.1299 20.5 11.5C20.2089 10.7248 19.8998 10.0116 19.6938 9.20994C19.1413 7.06076 19.3478 4.87293 17.9192 3.02898C16.6305 1.36552 14.6217 0.169922 12.5561 0.169922Z" fill="#1EA6C6"/>
<path d="M26.2408 17.3125C24.7586 17.3125 23.3628 17.6812 22.139 18.331C19.3686 19.8021 17.4816 22.7163 17.4816 26.0717C17.4816 27.1608 17.681 28.2031 18.0442 29.165C19.2944 32.4759 22.4923 34.8309 26.2408 34.8309C31.0783 34.8309 35 30.9092 35 26.0717C35 21.2341 31.0784 17.3125 26.2408 17.3125ZM31.2561 23.6986L24.9405 30.0143L24.7188 30.236C24.7046 30.2502 24.6899 30.2637 24.675 30.2768C24.5016 30.4292 24.2847 30.5057 24.0676 30.5057C23.8319 30.5057 23.5962 30.4159 23.4163 30.236L21.2256 28.0452C20.8659 27.6854 20.8659 27.1022 21.2256 26.7426C21.5852 26.383 22.1685 26.383 22.5281 26.7426L24.0676 28.2821L24.5878 27.7619L29.9536 22.3961C30.3133 22.0364 30.8965 22.0364 31.2561 22.3961C31.6158 22.7558 31.6158 23.339 31.2561 23.6986Z" fill="#1EA6C6"/>
</g>
<defs>
<clipPath id="clip0_733_76">
<rect width="35" height="35" fill="white"/>
</clipPath>
</defs>
</svg>
