<svg width="28" height="28" viewBox="0 0 48 48" fill="none" xmlns="http://www.w3.org/2000/svg">
<path d="M29.85 37C28.4833 37 27.3333 36.5333 26.4 35.6C25.4667 34.6667 25 33.5167 25 32.15C25 30.7833 25.4667 29.6333 26.4 28.7C27.3333 27.7667 28.4833 27.3 29.85 27.3C31.2167 27.3 32.3667 27.7667 33.3 28.7C34.2333 29.6333 34.7 30.7833 34.7 32.15C34.7 33.5167 34.2333 34.6667 33.3 35.6C32.3667 36.5333 31.2167 37 29.85 37ZM9 44C8.2 44 7.5 43.7 6.9 43.1C6.3 42.5 6 41.8 6 41V10C6 9.2 6.3 8.5 6.9 7.9C7.5 7.3 8.2 7 9 7H12.25V4H15.5V7H32.5V4H35.75V7H39C39.8 7 40.5 7.3 41.1 7.9C41.7 8.5 42 9.2 42 10V41C42 41.8 41.7 42.5 41.1 43.1C40.5 43.7 39.8 44 39 44H9ZM9 41H39V19.5H9V41ZM9 16.5H39V10H9V16.5ZM9 16.5V10V16.5Z" fill="#05FE2D"/>
</svg>
