<svg width="38" height="38" viewBox="0 0 38 38" fill="none" xmlns="http://www.w3.org/2000/svg">
<g clip-path="url(#clip0_291_63)">
<circle cx="19" cy="19" r="19" fill="#D9D9D9"/>
<path d="M19 -0.529544C8.50369 -0.529544 0 8.19621 0 18.9503C0 27.5616 5.4435 34.8605 12.9877 37.4355C13.9412 37.6193 14.2856 37.0166 14.2856 36.4956C14.2856 36.0329 14.2749 34.8093 14.2678 33.1852C8.97987 34.3589 7.866 30.5664 7.866 30.5664C7.00031 28.3213 5.75106 27.7187 5.75106 27.7187C4.03156 26.5146 5.88762 26.5401 5.88762 26.5401C7.79237 26.6728 8.79462 28.5429 8.79462 28.5429C10.4892 31.5233 13.2406 30.6614 14.3296 30.1597C14.4958 28.9045 14.991 28.0413 15.5301 27.5604C11.3121 27.0722 6.87681 25.3981 6.87681 17.9337C6.87681 15.8019 7.61306 14.0657 8.83025 12.7021C8.62006 12.2139 7.97644 10.2294 8.99769 7.54607C8.99769 7.54607 10.5877 7.0262 14.2227 9.54397C15.7439 9.11176 17.3589 8.89627 18.9727 8.88531C20.5877 8.89627 22.2015 9.11298 23.7227 9.54397C27.3362 7.0262 28.9251 7.54607 28.9251 7.54607C29.9452 10.2294 29.3016 12.2127 29.1163 12.7021C30.3216 14.0657 31.0579 15.8031 31.0579 17.9337C31.0579 25.4152 26.6166 27.0649 22.3939 27.5409C23.0541 28.1241 23.6728 29.3233 23.6728 31.1435C23.6728 33.7489 23.6491 35.8479 23.6491 36.4822C23.6491 36.9886 23.9816 37.5974 24.9601 37.4014C32.5601 34.8532 37.9976 27.5482 37.9976 18.9491C37.9976 8.19499 29.4939 -0.530762 18.9976 -0.530762L19 -0.529544Z" fill="black"/>
</g>
<defs>
<clipPath id="clip0_291_63">
<rect width="38" height="38" fill="white"/>
</clipPath>
</defs>
</svg>
