<svg width="16" height="21" viewBox="0 0 16 21" fill="none" xmlns="http://www.w3.org/2000/svg">
<g clip-path="url(#clip0_823_24)">
<path d="M14.0592 9.26923H1.94082C1.10768 9.26923 0.426025 10.0077 0.426025 10.9103V18.7051C0.426025 19.6077 1.10768 20.3462 1.94082 20.3462H14.0592C14.8923 20.3462 15.574 19.6077 15.574 18.7051V10.9103C15.574 10.0077 14.8923 9.26923 14.0592 9.26923ZM9.89348 18.0897C9.32543 18.5 8.68165 18.7051 7.99999 18.7051C7.77277 18.7051 7.54555 18.6641 7.31833 18.6231C6.40946 18.418 5.65206 17.8846 5.15975 17.0641L6.40946 16.1615C6.67455 16.6128 7.12898 16.941 7.62129 17.0231C8.1136 17.1462 8.60591 17.0231 9.06035 16.6949C9.93135 16.0795 10.1586 14.7667 9.59052 13.8641C9.32543 13.4128 8.871 13.0846 8.37869 13.0026C7.88638 12.8795 7.39407 13.0026 6.93964 13.3308C6.82603 13.4128 6.75029 13.4949 6.67455 13.5769L7.99999 15.0128H4.59171V11.3205L5.57632 12.3872C5.7278 12.2231 5.91715 12.059 6.06863 11.9359C6.82603 11.4026 7.7349 11.1974 8.64378 11.3615C9.55265 11.5667 10.3101 12.1 10.8024 12.9205C11.8627 14.6436 11.4461 16.941 9.89348 18.0897Z" fill="#14FF00"/>
<path d="M2.31962 7.62821H3.83441C4.06163 7.62821 4.21311 7.50513 4.21311 7.25898V7.21795C4.21311 4.87949 6.06873 2.95128 8.26518 3.11539C10.2723 3.27949 11.7871 5.16667 11.7871 7.38205V7.25898C11.7871 7.50513 11.9386 7.62821 12.1658 7.62821H13.6806C13.9078 7.62821 14.0593 7.50513 14.0593 7.25898V7.21795C14.0593 3.48462 11.1812 0.489745 7.69713 0.653848C4.4782 0.817951 2.01666 3.7718 1.94092 7.25898C1.97879 7.4641 2.13027 7.62821 2.31962 7.62821Z" fill="#14FF00"/>
</g>
<defs>
<clipPath id="clip0_823_24">
<rect width="16" height="20" fill="white" transform="translate(0 0.5)"/>
</clipPath>
</defs>
</svg>
