<svg width="48" height="41" viewBox="0 0 48 41" fill="none" xmlns="http://www.w3.org/2000/svg">
<g clip-path="url(#clip0_832_43)">
<path d="M48 37.8635V1.01319C48 0.499338 47.5891 0.0839844 47.0828 0.0839844H0.917186C0.410899 0.0839844 0 0.499338 0 1.01319V21.6842V25.3481V37.8635C0 38.3773 0.410899 38.7927 0.917186 38.7927H12.6975H16.3626H43.0096L44.8366 40.6446C45.0155 40.8248 45.2503 40.9168 45.4851 40.9168C45.7199 40.9168 45.9547 40.8248 46.1335 40.6446C46.4921 40.2803 46.4921 39.694 46.1335 39.3307L45.6025 38.7927H47.0828C47.5891 38.7927 48 38.3773 48 37.8635ZM46.1656 36.9343H43.7681L42.8271 35.98H44.4046C44.9109 35.98 45.3218 35.5646 45.3218 35.0508V7.54362C45.3218 7.02977 44.9109 6.61441 44.4046 6.61441H3.59812C3.09183 6.61441 2.68093 7.02977 2.68093 7.54362V18.7321V24.8965V35.0508C2.68093 35.5646 3.09183 35.98 3.59812 35.98H13.2827H19.382H40.2324L41.1743 36.9343H16.3626H12.6975H1.83437V25.3481V21.6842V1.94239H46.1656V36.9343ZM27.3918 29.6549C23.0388 29.6549 19.4975 26.0673 19.4975 21.6573C19.4975 18.6253 21.1714 15.9836 23.6313 14.6279H24.0009C24.3614 14.6279 24.665 14.4132 24.8163 14.1066C25.6243 13.8222 26.4892 13.6606 27.3927 13.6606C31.7456 13.6606 35.2869 17.2482 35.2869 21.6573C35.2869 26.0673 31.7447 29.6549 27.3918 29.6549ZM37.1213 21.6573C37.1213 16.2224 32.7573 11.8021 27.3927 11.8021C25.8967 11.8021 24.4861 12.1562 23.2186 12.7694H8.43903C7.93274 12.7694 7.52184 13.1848 7.52184 13.6986C7.52184 14.2125 7.93274 14.6279 8.43903 14.6279H20.5853C20.1396 15.0711 19.7351 15.5571 19.3801 16.0802H8.43903C7.93274 16.0802 7.52184 16.4955 7.52184 17.0094C7.52184 17.5232 7.93274 17.9386 8.43903 17.9386H18.3877C18.197 18.4097 18.0465 18.8994 17.9301 19.403H8.43903C7.93274 19.403 7.52184 19.8184 7.52184 20.3322C7.52184 20.847 7.93274 21.2614 8.43903 21.2614H17.6824C17.6778 21.3952 17.6632 21.5244 17.6632 21.66C17.6632 22.0122 17.6833 22.3607 17.7191 22.7054H8.43903C7.93274 22.7054 7.52184 23.1198 7.52184 23.6346C7.52184 24.1485 7.93274 24.5638 8.43903 24.5638H18.0952C18.2538 25.0851 18.462 25.5831 18.7005 26.0626H8.43903C7.93274 26.0626 7.52184 26.478 7.52184 26.9918C7.52184 27.5057 7.93274 27.921 8.43903 27.921H19.8809C19.8818 27.921 19.8828 27.9201 19.8837 27.9201C20.4257 28.5854 21.0558 29.1717 21.7501 29.6744H8.43903C7.93274 29.6744 7.52184 30.0888 7.52184 30.6036C7.52184 31.1175 7.93274 31.5328 8.43903 31.5328H26.6718C26.7461 31.5328 26.8112 31.5077 26.88 31.4891C27.0515 31.4984 27.2193 31.5152 27.3927 31.5152C29.7443 31.5152 31.9043 30.664 33.5892 29.2507L38.3971 34.1216H19.3811H13.2818H4.51439V24.8965V18.7321V8.47282H43.4856V34.1216H40.99L34.8852 27.9368C36.2811 26.2299 37.1213 24.0407 37.1213 21.6573Z" fill="white"/>
<path d="M43.3784 5.23829H44.4478C44.955 5.23829 45.365 4.82293 45.365 4.30908C45.365 3.79524 44.955 3.37988 44.4478 3.37988H43.3784C42.8721 3.37988 42.4612 3.79524 42.4612 4.30908C42.4612 4.82293 42.8721 5.23829 43.3784 5.23829Z" fill="white"/>
<path d="M34.2065 5.23829H35.2759C35.7831 5.23829 36.1931 4.82293 36.1931 4.30908C36.1931 3.79524 35.7831 3.37988 35.2759 3.37988H34.2065C33.7002 3.37988 33.2893 3.79524 33.2893 4.30908C33.2893 4.82293 33.7002 5.23829 34.2065 5.23829Z" fill="white"/>
<path d="M38.7924 5.23829H39.8619C40.3691 5.23829 40.7791 4.82293 40.7791 4.30908C40.7791 3.79524 40.3691 3.37988 39.8619 3.37988H38.7924C38.2861 3.37988 37.8752 3.79524 37.8752 4.30908C37.8752 4.82293 38.2861 5.23829 38.7924 5.23829Z" fill="white"/>
<path d="M34.2065 21.6578C34.2065 17.8508 31.1495 14.7538 27.3918 14.7538C26.8846 14.7538 26.4746 15.1691 26.4746 15.683C26.4746 16.1968 26.8846 16.6122 27.3918 16.6122C30.1378 16.6122 32.3721 18.8757 32.3721 21.6578C32.3721 22.1716 32.783 22.587 33.2893 22.587C33.7965 22.587 34.2065 22.1707 34.2065 21.6578Z" fill="white"/>
</g>
<defs>
<clipPath id="clip0_832_43">
<rect width="48" height="41" fill="white"/>
</clipPath>
</defs>
</svg>
