<svg width="51" height="44" viewBox="0 0 51 44" fill="none" xmlns="http://www.w3.org/2000/svg">
<g clip-path="url(#clip0_832_5)">
<path d="M44.5141 0.573853H6.4858C2.90914 0.573853 0 3.40744 0 6.89124V31.6772C0 35.1612 2.90914 37.9949 6.4858 37.9949H26.785V32.976H8.68634V5.59261H44.5141C45.2495 5.59261 45.8475 6.17494 45.8475 6.89124V7.33163H47.7905C48.9604 7.33163 50.0438 7.65343 51 8.17291V6.89124C51 3.40744 48.0908 0.573853 44.5141 0.573853ZM4.44808 21.6617C3.09863 21.6617 2.006 20.5966 2.006 19.2847C2.006 17.9713 3.09863 16.9061 4.44808 16.9061C5.7958 16.9061 6.8893 17.9713 6.8893 19.2847C6.8893 20.5966 5.7958 21.6617 4.44808 21.6617Z" fill="white"/>
<path d="M47.7904 10.6785H33.4253C31.6581 10.6785 30.22 12.0794 30.22 13.8004V40.3052C30.22 42.0263 31.6582 43.4271 33.4253 43.4271H47.7905C49.5574 43.4271 50.9957 42.0262 50.9957 40.3052V13.8004C50.9956 12.0793 49.5573 10.6785 47.7904 10.6785ZM33.6549 14.0243H47.5607V37.4274H33.6549V14.0243ZM39.0431 40.2292C39.0431 39.387 39.7433 38.7048 40.6061 38.7048C41.4724 38.7048 42.1735 39.387 42.1735 40.2292C42.1735 41.0705 41.4724 41.7542 40.6061 41.7542C39.7433 41.7542 39.0431 41.0705 39.0431 40.2292Z" fill="white"/>
</g>
<defs>
<clipPath id="clip0_832_5">
<rect width="51" height="44" fill="white"/>
</clipPath>
</defs>
</svg>
