<svg width="54" height="52" viewBox="0 0 54 52" fill="none" xmlns="http://www.w3.org/2000/svg">
<path d="M45.4085 16.3459C45.4085 16.3312 45.4136 16.2376 45.4136 16.2376C45.411 8.56741 38.931 2.32751 30.9633 2.32751C25.4342 2.32751 20.6106 5.44387 18.1899 10.106C16.9501 9.18043 15.5314 8.51092 13.9262 8.51092C9.9947 8.51092 6.79439 11.5903 6.79439 15.3762C6.79439 15.3762 6.84298 15.711 6.88126 15.9694C2.86292 17.2862 0 20.8259 0 25.0105C0 27.5951 1.04804 30.032 2.94481 31.8585C4.84406 33.6874 7.37222 34.6966 10.0562 34.6966H44.3631C49.6775 34.6966 54 30.5366 54 25.4215C54.0025 20.6609 50.2091 16.8677 45.4085 16.3459ZM44.3657 31.9594H10.0561C8.13123 31.9594 6.31896 31.2333 4.95392 29.9212C3.59397 28.6092 2.84254 26.8639 2.84254 25.008C2.84254 21.6776 5.30421 18.8099 8.68855 18.1846L10.0127 17.941L9.79289 16.4739L9.63694 15.376C9.63694 13.0966 11.5592 11.2481 13.9263 11.2481C15.3271 11.2481 16.6461 11.9078 17.4513 13.0204L19.0618 15.253L19.9589 12.6783C21.554 8.12441 25.9737 5.06717 30.9583 5.06717C37.3616 5.06717 42.5686 10.0788 42.5686 16.2401L42.4254 18.8617L44.0282 18.8887L44.3631 18.8789C48.1105 18.8789 51.1601 21.813 51.1601 25.4216C51.1601 29.0228 48.113 31.9594 44.3657 31.9594ZM44.795 44.7668V49.6727H34.8079V44.7668C34.8079 43.7674 35.6565 42.9551 36.6816 42.9551H42.9212C43.9489 42.9551 44.7925 43.7674 44.795 44.7668ZM23.7983 39.349C23.7983 37.5226 25.3372 36.0407 27.2339 36.0407C29.1305 36.0407 30.6669 37.5226 30.6669 39.349C30.6669 41.1755 29.128 42.6573 27.2339 42.6573C25.3372 42.6573 23.7983 41.1779 23.7983 39.349ZM36.3673 39.349C36.3673 37.5226 37.9062 36.0407 39.8028 36.0407C41.6996 36.0407 43.2383 37.5226 43.2383 39.349C43.2383 41.1755 41.6995 42.6573 39.8028 42.6573C37.9062 42.6573 36.3673 41.1779 36.3673 39.349ZM11.2346 39.349C11.2346 37.5226 12.7735 36.0407 14.6701 36.0407C16.5668 36.0407 18.1057 37.5226 18.1057 39.349C18.1057 41.1755 16.5668 42.6573 14.6701 42.6573C12.7735 42.6573 11.2346 41.1779 11.2346 39.349ZM32.2287 44.7668V49.6727H22.2466V44.7668C22.2466 43.7674 23.0877 42.9551 24.1229 42.9551H30.3524C31.3878 42.9551 32.2262 43.7674 32.2287 44.7668ZM19.6649 44.7668V49.6727H9.67782V44.7668C9.67782 43.7674 10.5265 42.9551 11.5515 42.9551H17.7912C18.8163 42.9551 19.6649 43.7674 19.6649 44.7668Z" fill="white"/>
</svg>
