<svg version="1.1" width="24" height="24" xmlns="http://www.w3.org/2000/svg" viewBox="0 0 452.593 452.593" xmlns:xlink="http://www.w3.org/1999/xlink" fill="white">
  <g>
    <path d="m430.511,44.654h-408.429c-12.176,0-22.082,9.906-22.082,22.082v250.224c0,12.176 9.906,22.082 22.082,22.082h154.323l-6.428,48.898h-27.506c-5.523,0-10,4.477-10,10s4.477,10 10,10h167.651c5.523,0 10-4.477 10-10s-4.477-10-10-10h-27.506l-6.428-48.898h154.323c12.176,0 22.082-9.906 22.082-22.082v-250.224c5.68434e-14-12.176-9.905-22.082-22.082-22.082zm-408.429,20h408.429c1.148,0 2.082,0.934 2.082,2.082v211.359h-412.593v-211.359c0-1.148 0.934-2.082 2.082-2.082zm240.363,323.285h-72.296l6.428-48.898h59.44l6.428,48.898zm168.066-68.897h-408.429c-1.148,0-2.082-0.934-2.082-2.082v-18.865h412.593v18.865c0,1.147-0.934,2.082-2.082,2.082z"/>
    <path d="m189.293,215.168v22.305c0,18.192 14.8,32.992 32.992,32.992h8.024c18.192,0 32.992-14.8 32.992-32.992v-22.305c0-0.007-0.001-0.014-0.001-0.021s0.001-0.014 0.001-0.021c0-16.496 4.438-32.062 12.835-45.017 6.223-9.601 9.513-20.744 9.513-32.227 0-16.285-6.463-31.473-18.199-42.768-11.73-11.29-27.168-17.17-43.474-16.539-30.607,1.173-55.632,26.058-56.971,56.654-0.523,11.955 2.497,23.622 8.734,33.741 8.867,14.385 13.554,30.345 13.554,46.198zm54.007,22.306c0,7.164-5.828,12.992-12.992,12.992h-8.024c-7.164,0-12.992-5.828-12.992-12.992v-12.305h34.008v12.305zm-56.316-101.37c0.888-20.275 17.473-36.767 37.756-37.543 10.826-0.417 21.063,3.479 28.84,10.964 7.782,7.49 12.068,17.561 12.068,28.358 0,7.613-2.177,14.995-6.295,21.348-8.77,13.53-14.087,29.239-15.602,45.938h-34.951c-1.599-16.166-7.063-32.135-16.037-46.693-4.128-6.697-6.126-14.433-5.779-22.372z"/>
  </g>
</svg>
