<svg width="40" height="18" viewBox="0 0 40 18" fill="none" xmlns="http://www.w3.org/2000/svg">
<g clip-path="url(#clip0_733_96)">
<rect width="40" height="18" rx="5" fill="white"/>
<path d="M31.5541 5.80664C30.8528 5.80664 30.2826 6.37856 30.2826 7.08239V8.32494H32.8281V7.08239C32.8281 6.37856 32.2553 5.80664 31.5541 5.80664Z" fill="#1EA6C6"/>
<path d="M35.0868 -0.246094H4.91319C2.21277 -0.246094 0 1.96837 0 4.6688V13.3326C0 16.0373 2.21277 18.2475 4.91319 18.2475H35.0868C37.7872 18.2475 40 16.0373 40 13.3326V4.6688C40 1.96837 37.7872 -0.246094 35.0868 -0.246094ZM10.6894 10.3428L11.8681 11.6262L9.82638 13.1582L8.98894 11.6262C8.86553 11.4075 8.67234 10.9786 8.40085 10.3428C8.10383 11.0416 7.90638 11.4671 7.80851 11.6262L6.95915 13.1582L4.86043 11.6262L6.12936 10.3428C6.48681 9.98965 6.83319 9.68667 7.17532 9.43816C6.82638 9.40667 6.36766 9.34199 5.8017 9.23561L4.04426 8.94965L4.85957 6.55646L6.43574 7.27305C6.6017 7.34795 7.01447 7.58369 7.67149 7.97433C7.53106 7.33859 7.44085 6.86625 7.4 6.55646L7.17617 4.84327H9.67915L9.4766 6.55646C9.43234 6.97348 9.33532 7.44582 9.19149 7.97433C9.48 7.82965 9.67064 7.73348 9.76085 7.68071C10.0774 7.50454 10.3217 7.38284 10.486 7.30454L12.063 6.55646L12.8443 8.94965L11.1004 9.31391C10.7813 9.37518 10.3081 9.41518 9.67915 9.43816C10.1055 9.77178 10.4391 10.0714 10.6894 10.3428ZM22.2443 10.3428L23.4247 11.6262L21.383 13.1573L20.5464 11.6262C20.423 11.4075 20.2298 10.9786 19.9591 10.3428C19.6613 11.0416 19.4655 11.4671 19.3677 11.6262L18.5166 13.1573L16.4187 11.6262L17.6877 10.3428C18.0451 9.98965 18.3906 9.68667 18.7336 9.43816C18.3864 9.40667 17.926 9.34199 17.36 9.23561L15.6017 8.94965L16.4179 6.55646L17.9949 7.27305C18.1591 7.34795 18.5736 7.58369 19.2298 7.97433C19.086 7.33859 18.9957 6.86625 18.9574 6.55646L18.7328 4.84497H21.2366L21.0332 6.55646C20.9872 6.97348 20.8919 7.44582 20.7498 7.97433C21.0366 7.82965 21.2272 7.73348 21.3183 7.68071C21.6332 7.50454 21.8783 7.38284 22.0434 7.30454L23.6213 6.55646L24.4034 8.94965L22.6579 9.31391C22.3387 9.37518 21.8672 9.41518 21.2374 9.43816C21.6604 9.77178 21.9949 10.0714 22.2443 10.3428ZM35.1915 12.5114C35.1915 13.0382 34.76 13.4688 34.234 13.4688H28.8766C28.3498 13.4688 27.9191 13.0382 27.9191 12.5114V9.28242C27.9191 8.75561 28.3498 8.32497 28.8766 8.32497H29.006V7.08242C29.006 5.67561 30.1489 4.53093 31.554 4.53093C32.96 4.53093 34.1038 5.67476 34.1038 7.08242V8.32497H34.2332C34.7583 8.32497 35.1906 8.75561 35.1906 9.28242V12.5114H35.1915Z" fill="#1EA6C6"/>
</g>
<defs>
<clipPath id="clip0_733_96">
<rect width="40" height="18" rx="5" fill="white"/>
</clipPath>
</defs>
</svg>
