<svg width="41" height="55" viewBox="0 0 41 55" fill="none" xmlns="http://www.w3.org/2000/svg">
<path d="M20.5 23.267C26.9147 23.267 32.1335 18.0482 32.1335 11.6335C32.1337 5.21874 26.9147 0 20.5 0C14.0853 0 8.86652 5.21874 8.86652 11.6335C8.86652 18.0484 14.0853 23.267 20.5 23.267ZM20.5 2.77778C25.3832 2.77778 29.3557 6.75046 29.3557 11.6335C29.3557 16.5165 25.383 20.4892 20.5 20.4892C15.617 20.4892 11.6443 16.5165 11.6443 11.6335C11.6443 6.75046 15.617 2.77778 20.5 2.77778Z" fill="#20E456"/>
<path d="M39.9301 49.8566L36.1151 34.031C35.6625 32.1527 33.9969 30.8408 32.0644 30.8408C29.6412 30.8408 11.1014 30.8408 8.93546 30.8408C7.0033 30.8408 5.33755 32.1527 4.88468 34.031L1.06968 49.8566C0.438216 52.4765 2.42226 54.9998 5.12047 54.9998H35.8795C38.5744 54.9998 40.5627 52.4803 39.9301 49.8566ZM5.12047 52.222C4.22241 52.222 3.55959 51.3821 3.77027 50.5077L7.58526 34.6819C7.73616 34.0557 8.29135 33.6186 8.93565 33.6186H15.2589L13.5073 46.009C13.4554 46.3757 13.5521 46.7477 13.7758 47.0425L17.7035 52.222H5.12047ZM16.339 45.8252L18.0645 33.6188H22.9356L24.6612 45.8252L20.5 51.3124L16.339 45.8252ZM35.8795 52.222H23.2965L27.2241 47.0427C27.4477 46.7477 27.5444 46.3757 27.4925 46.0091L25.7409 33.6188H32.0642C32.7083 33.6188 33.2637 34.0561 33.4146 34.6822L37.2296 50.5079C37.4402 51.3813 36.7787 52.222 35.8795 52.222Z" fill="#20E456"/>
</svg>
