<svg width="24" height="24" viewBox="0 0 24 24" fill="none" xmlns="http://www.w3.org/2000/svg">
<path d="M23.1656 22.875C23.1656 22.875 23.1656 12.2906 23.1656 8.76562C23.1656 8.62031 22.9828 8.4375 22.8047 8.30156L19.1156 5.625V2.66719C19.1156 2.37656 18.8719 2.17969 18.6281 2.17969H14.4234L12.2813 0.61875C12.1359 0.520313 11.8922 0.520313 11.7422 0.61875L9.60001 2.17969H5.39532C5.10469 2.17969 4.90782 2.42344 4.90782 2.66719V5.59219L1.17188 8.30625C0.951569 8.44219 0.810944 8.62031 0.810944 8.77031C0.810944 12.3188 0.810944 22.9734 0.810944 22.9734C0.810944 23.25 1.03126 23.4422 1.26094 23.4609C1.27501 23.4609 1.28438 23.4609 1.29844 23.4609H22.6734C22.9875 23.4562 23.1656 23.2125 23.1656 22.875V22.875ZM22.2375 9.64219V21.9984L14.1703 15.5391L22.2375 9.64219ZM21.8766 8.78437L19.1156 10.7953V6.75469L21.8766 8.78437ZM11.9906 1.54219L12.8484 2.175H11.1281L11.9906 1.54219ZM18.1406 3.15469V11.5078L11.9906 15.9891L5.84063 11.5078V3.15469H18.1406ZM1.74376 9.64219L9.81094 15.5391L1.74376 22.0359V9.64219V9.64219ZM4.91251 10.8328L2.08126 8.77031L4.91251 6.7125V10.8328ZM2.62032 22.5281L10.5938 16.1109L11.6953 16.9172C11.9063 17.0766 12.0656 17.0766 12.2813 16.9172L13.3828 16.1109L21.4031 22.5281H2.62032V22.5281Z" fill="white"/>
<path d="M15.3094 5.54532H8.72345V6.47344H15.3094V5.54532Z" fill="white"/>
<path d="M15.3094 8.52188H8.72345V9.45001H15.3094V8.52188Z" fill="white"/>
<path d="M15.3094 11.4984H8.72345V12.4266H15.3094V11.4984Z" fill="white"/>
</svg>
