<svg width="24" height="24" viewBox="0 0 24 24" fill="none" xmlns="http://www.w3.org/2000/svg">
<path d="M18.3281 10.9663H5.67188C5.11294 10.9679 4.57736 11.1907 4.18213 11.5859C3.7869 11.9812 3.56414 12.5167 3.5625 13.0757V20.6694C3.56414 21.2284 3.7869 21.7639 4.18213 22.1592C4.57736 22.5544 5.11294 22.7772 5.67188 22.7788H18.3281C18.8871 22.7772 19.4226 22.5544 19.8179 22.1592C20.2131 21.7639 20.4359 21.2284 20.4375 20.6694V13.0757C20.4359 12.5167 20.2131 11.9812 19.8179 11.5859C19.4226 11.1907 18.8871 10.9679 18.3281 10.9663V10.9663ZM8.63077 17.3147C8.68366 17.345 8.73004 17.3856 8.76726 17.4339C8.80447 17.4822 8.83179 17.5374 8.84764 17.5963C8.86349 17.6552 8.86757 17.7167 8.85963 17.7772C8.8517 17.8377 8.83192 17.896 8.80141 17.9488C8.77091 18.0016 8.73029 18.0479 8.68187 18.085C8.63345 18.1221 8.57819 18.1493 8.51925 18.1651C8.4603 18.1808 8.39884 18.1847 8.33838 18.1766C8.27791 18.1686 8.21963 18.1487 8.16687 18.118L7.4014 17.6761V18.5601C7.4014 18.6831 7.35253 18.8011 7.26553 18.8881C7.17853 18.9751 7.06054 19.024 6.93751 19.024C6.81447 19.024 6.69648 18.9751 6.60948 18.8881C6.52248 18.8011 6.47361 18.6831 6.47361 18.5601V17.6761L5.70814 18.118C5.60162 18.1792 5.47518 18.1957 5.35657 18.1637C5.23795 18.1318 5.13683 18.0542 5.07541 17.9478C5.01398 17.8414 4.99726 17.715 5.02891 17.5963C5.06056 17.4776 5.138 17.3763 5.24424 17.3147L6.00992 16.8726L5.24424 16.4305C5.138 16.3689 5.06056 16.2676 5.02891 16.1489C4.99726 16.0302 5.01398 15.9038 5.07541 15.7974C5.13683 15.691 5.23795 15.6134 5.35657 15.5815C5.47518 15.5495 5.60162 15.566 5.70814 15.6272L6.47361 16.0691V15.1851C6.47361 15.0621 6.52248 14.9441 6.60948 14.8571C6.69648 14.7701 6.81447 14.7212 6.93751 14.7212C7.06054 14.7212 7.17853 14.7701 7.26553 14.8571C7.35253 14.9441 7.4014 15.0621 7.4014 15.1851V16.0691L8.16687 15.6272C8.27339 15.566 8.39982 15.5495 8.51844 15.5815C8.63706 15.6134 8.73818 15.691 8.7996 15.7974C8.86103 15.9038 8.87775 16.0302 8.8461 16.1489C8.81444 16.2676 8.737 16.3689 8.63077 16.4305L7.86509 16.8726L8.63077 17.3147ZM13.6933 17.3147C13.7462 17.345 13.7925 17.3856 13.8298 17.4339C13.867 17.4822 13.8943 17.5374 13.9101 17.5963C13.926 17.6552 13.9301 17.7167 13.9221 17.7772C13.9142 17.8377 13.8944 17.896 13.8639 17.9488C13.8334 18.0016 13.7928 18.0479 13.7444 18.085C13.6959 18.1221 13.6407 18.1493 13.5817 18.1651C13.5228 18.1808 13.4613 18.1847 13.4009 18.1766C13.3404 18.1686 13.2821 18.1487 13.2294 18.118L12.4639 17.6761V18.5601C12.4639 18.6831 12.415 18.8011 12.328 18.8881C12.241 18.9751 12.123 19.024 12 19.024C11.877 19.024 11.759 18.9751 11.672 18.8881C11.585 18.8011 11.5361 18.6831 11.5361 18.5601V17.6761L10.7706 18.118C10.6641 18.1792 10.5377 18.1957 10.4191 18.1637C10.3004 18.1318 10.1993 18.0542 10.1379 17.9478C10.0765 17.8414 10.0598 17.715 10.0914 17.5963C10.1231 17.4776 10.2005 17.3763 10.3067 17.3147L11.0724 16.8726L10.3067 16.4305C10.2005 16.3689 10.1231 16.2676 10.0914 16.1489C10.0598 16.0302 10.0765 15.9038 10.1379 15.7974C10.1993 15.691 10.3004 15.6134 10.4191 15.5815C10.5377 15.5495 10.6641 15.566 10.7706 15.6272L11.5361 16.0691V15.1851C11.5361 15.0621 11.585 14.9441 11.672 14.8571C11.759 14.7701 11.877 14.7212 12 14.7212C12.123 14.7212 12.241 14.7701 12.328 14.8571C12.415 14.9441 12.4639 15.0621 12.4639 15.1851V16.0691L13.2294 15.6272C13.3359 15.566 13.4623 15.5495 13.5809 15.5815C13.6996 15.6134 13.8007 15.691 13.8621 15.7974C13.9235 15.9038 13.9402 16.0302 13.9086 16.1489C13.8769 16.2676 13.7995 16.3689 13.6933 16.4305L12.9276 16.8726L13.6933 17.3147ZM18.7558 17.3147C18.8087 17.345 18.855 17.3856 18.8923 17.4339C18.9295 17.4822 18.9568 17.5374 18.9726 17.5963C18.9885 17.6552 18.9926 17.7167 18.9846 17.7772C18.9767 17.8377 18.9569 17.896 18.9264 17.9488C18.8959 18.0016 18.8553 18.0479 18.8069 18.085C18.7584 18.1221 18.7032 18.1493 18.6442 18.1651C18.5853 18.1808 18.5238 18.1847 18.4634 18.1766C18.4029 18.1686 18.3446 18.1487 18.2919 18.118L17.5264 17.6761V18.5601C17.5264 18.6831 17.4775 18.8011 17.3905 18.8881C17.3035 18.9751 17.1855 19.024 17.0625 19.024C16.9395 19.024 16.8215 18.9751 16.7345 18.8881C16.6475 18.8011 16.5986 18.6831 16.5986 18.5601V17.6761L15.8331 18.118C15.7266 18.1792 15.6002 18.1957 15.4816 18.1637C15.3629 18.1318 15.2618 18.0542 15.2004 17.9478C15.139 17.8414 15.1223 17.715 15.1539 17.5963C15.1856 17.4776 15.263 17.3763 15.3692 17.3147L16.1349 16.8726L15.3692 16.4305C15.263 16.3689 15.1856 16.2676 15.1539 16.1489C15.1223 16.0302 15.139 15.9038 15.2004 15.7974C15.2618 15.691 15.3629 15.6134 15.4816 15.5815C15.6002 15.5495 15.7266 15.566 15.8331 15.6272L16.5986 16.0691V15.1851C16.5986 15.0621 16.6475 14.9441 16.7345 14.8571C16.8215 14.7701 16.9395 14.7212 17.0625 14.7212C17.1855 14.7212 17.3035 14.7701 17.3905 14.8571C17.4775 14.9441 17.5264 15.0621 17.5264 15.1851V16.0691L18.2919 15.6272C18.3984 15.566 18.5248 15.5495 18.6434 15.5815C18.7621 15.6134 18.8632 15.691 18.9246 15.7974C18.986 15.9038 19.0027 16.0302 18.9711 16.1489C18.9394 16.2676 18.862 16.3689 18.7558 16.4305L17.9901 16.8726L18.7558 17.3147Z" fill="white"/>
<path d="M7.40143 6.7476C7.40143 5.52797 7.88592 4.3583 8.74833 3.4959C9.61073 2.63349 10.7804 2.149 12 2.149C13.2197 2.149 14.3893 2.63349 15.2517 3.4959C16.1141 4.3583 16.5986 5.52797 16.5986 6.7476V10.0381H17.5264V6.7476C17.5264 5.28191 16.9442 3.87624 15.9078 2.83984C14.8714 1.80344 13.4657 1.2212 12 1.2212C10.5343 1.2212 9.12868 1.80344 8.09228 2.83984C7.05588 3.87624 6.47363 5.28191 6.47363 6.7476V10.0381H7.40143V6.7476Z" fill="white"/>
</svg>
