<svg width="28" height="28" viewBox="0 0 28 28" fill="none" xmlns="http://www.w3.org/2000/svg">
<path d="M18.375 2.33333C19.8247 2.33333 21 3.50858 21 4.95833V23.0417C21 24.4914 19.8247 25.6667 18.375 25.6667H9.625C8.17525 25.6667 7 24.4914 7 23.0417V4.95833C7 3.50858 8.17525 2.33333 9.625 2.33333H18.375ZM18.375 4.08333H9.625C9.14175 4.08333 8.75 4.47508 8.75 4.95833V23.0417C8.75 23.5249 9.14175 23.9167 9.625 23.9167H18.375C18.8582 23.9167 19.25 23.5249 19.25 23.0417V4.95833C19.25 4.47508 18.8582 4.08333 18.375 4.08333ZM15.457 20.4167C15.9403 20.4159 16.3326 20.8071 16.3333 21.2903C16.3341 21.7736 15.9429 22.1659 15.4597 22.1667L12.543 22.1711C12.0597 22.1718 11.6674 21.7806 11.6667 21.2974C11.6659 20.8141 12.0571 20.4218 12.5403 20.4211L15.457 20.4167Z" fill="white"/>
<g clip-path="url(#clip0_155_129)">
<path d="M15.6202 8.82748L15.927 8.5207C16.008 8.43969 16.008 8.30846 15.927 8.22745C15.846 8.14644 15.7147 8.14644 15.6337 8.22745L15.2682 8.59296C14.897 8.38765 14.4707 8.27038 14.0174 8.27038C13.564 8.27038 13.1377 8.38765 12.7666 8.59296L12.401 8.22743C12.32 8.14642 12.1887 8.14642 12.1077 8.22743C12.0267 8.30844 12.0267 8.43967 12.1077 8.52068L12.4145 8.82746C11.8124 9.30264 11.4247 10.0403 11.4247 10.8651C11.4247 10.9797 11.5176 11.0747 11.6322 11.0747H16.4025C16.5171 11.0747 16.61 10.9797 16.61 10.8651C16.61 10.0403 16.2223 9.30266 15.6202 8.82748ZM11.8494 10.6599C11.9541 9.57099 12.8864 8.68952 14.0174 8.68952C15.1483 8.68952 16.0806 9.57101 16.1853 10.6599H11.8494Z" fill="white"/>
<path d="M16.4025 11.2821H11.6322C11.5176 11.2821 11.4073 11.3706 11.4073 11.4852V14.8384C11.4073 15.3911 11.8736 15.8451 12.4252 15.8451H12.4444V16.7741C12.4444 17.1743 12.7701 17.5 13.1703 17.5C13.5705 17.5 13.8962 17.1743 13.8962 16.7741V15.8451H14.1036V16.7741C14.1036 17.1743 14.4293 17.5 14.8296 17.5C15.2298 17.5 15.5555 17.1743 15.5555 16.7741V15.8451H15.6094C16.1611 15.8451 16.5925 15.3911 16.5925 14.8384V11.4852C16.5926 11.3706 16.5171 11.2821 16.4025 11.2821ZM16.1777 14.8384C16.1777 15.1624 15.9324 15.4303 15.6095 15.4303H15.3655C15.251 15.4303 15.1407 15.5187 15.1407 15.6333V16.7741C15.1407 16.9456 15.0011 17.0852 14.8296 17.0852C14.658 17.0852 14.5185 16.9456 14.5185 16.7741V15.6333C14.5185 15.5187 14.443 15.4303 14.3284 15.4303H13.7062C13.5917 15.4303 13.4814 15.5187 13.4814 15.6333V16.7741C13.4814 16.9456 13.3419 17.0852 13.1703 17.0852C12.9988 17.0852 12.8592 16.9456 12.8592 16.7741V15.6333C12.8592 15.5187 12.7837 15.4303 12.6692 15.4303H12.4252C12.1022 15.4303 11.8222 15.1624 11.8222 14.8384V11.6969H16.1777V14.8384H16.1777Z" fill="white"/>
<path d="M17.5259 11.2778C17.1257 11.2778 16.8 11.6037 16.8 12.0043V14.6994C16.8 15.1 17.1257 15.4259 17.5259 15.4259C17.9261 15.4259 18.2518 15.1 18.2518 14.6994V12.0043C18.2518 11.6037 17.9261 11.2778 17.5259 11.2778ZM17.837 14.6994C17.837 14.8713 17.6974 15.0111 17.5259 15.0111C17.3543 15.0111 17.2148 14.8713 17.2148 14.6994V12.0043C17.2148 11.8325 17.3543 11.6926 17.5259 11.6926C17.6974 11.6926 17.837 11.8325 17.837 12.0043V14.6994Z" fill="white"/>
<path d="M10.474 11.2778C10.0738 11.2778 9.74811 11.6037 9.74811 12.0043V14.6994C9.74811 15.1 10.0738 15.4259 10.474 15.4259C10.8743 15.4259 11.2 15.1 11.2 14.6994V12.0043C11.2 11.6037 10.8743 11.2778 10.474 11.2778ZM10.7851 14.6994C10.7851 14.8713 10.6456 15.0111 10.474 15.0111C10.3025 15.0111 10.1629 14.8713 10.1629 14.6994V12.0043C10.1629 11.8325 10.3025 11.6926 10.474 11.6926C10.6456 11.6926 10.7851 11.8325 10.7851 12.0043V14.6994Z" fill="white"/>
<path d="M13.0843 10.4482C13.3134 10.4482 13.4991 10.2624 13.4991 10.0333C13.4991 9.80424 13.3134 9.61852 13.0843 9.61852C12.8552 9.61852 12.6694 9.80424 12.6694 10.0333C12.6694 10.2624 12.8552 10.4482 13.0843 10.4482Z" fill="white"/>
<path d="M14.951 10.4482C15.1801 10.4482 15.3658 10.2624 15.3658 10.0333C15.3658 9.80424 15.1801 9.61852 14.951 9.61852C14.7219 9.61852 14.5361 9.80424 14.5361 10.0333C14.5361 10.2624 14.7219 10.4482 14.951 10.4482Z" fill="white"/>
</g>
<defs>
<clipPath id="clip0_155_129">
<rect width="9.33333" height="9.33333" fill="white" transform="translate(9.33331 8.16667)"/>
</clipPath>
</defs>
</svg>
