<svg width="200" height="200" viewBox="0 0 200 200" fill="none" xmlns="http://www.w3.org/2000/svg">
<path d="M100.592 153.402C111.44 153.402 121.425 150.485 130.547 144.65C139.67 138.815 146.285 130.884 150.394 120.858H50.789C55.0625 130.884 61.7193 138.815 70.7594 144.65C79.7995 150.485 89.7436 153.402 100.592 153.402ZM56.7061 86.3413L67.8008 75.2467L78.8955 86.3413L87.7712 77.4656L67.8008 57.4952L47.8304 77.4656L56.7061 86.3413ZM122.535 86.3413L133.629 75.2467L144.724 86.3413L153.6 77.4656L133.629 57.4952L113.659 77.4656L122.535 86.3413ZM100.592 198.028C87.1137 198.028 74.3754 195.439 62.3767 190.261C50.378 185.084 39.8997 178.016 30.9418 169.058C21.9839 160.1 14.9162 149.622 9.73867 137.623C4.56115 125.625 1.9724 112.886 1.9724 99.4084C1.9724 85.766 4.56115 72.9455 9.73867 60.9469C14.9162 48.9482 21.9839 38.511 30.9418 29.6352C39.8997 20.7595 50.378 13.7328 62.3767 8.55533C74.3754 3.37782 87.1137 0.789062 100.592 0.789062C114.234 0.789062 127.055 3.37782 139.053 8.55533C151.052 13.7328 161.489 20.7595 170.365 29.6352C179.241 38.511 186.267 48.9482 191.445 60.9469C196.622 72.9455 199.211 85.766 199.211 99.4084C199.211 112.886 196.622 125.625 191.445 137.623C186.267 149.622 179.241 160.1 170.365 169.058C161.489 178.016 151.052 185.084 139.053 190.261C127.055 195.439 114.234 198.028 100.592 198.028ZM100.592 183.235C123.932 183.235 143.738 175.058 160.01 158.703C176.282 142.349 184.418 122.584 184.418 99.4084C184.418 76.0685 176.282 56.2624 160.01 39.9902C143.738 23.7181 123.932 15.582 100.592 15.582C77.4162 15.582 57.6512 23.7181 41.2969 39.9902C24.9425 56.2624 16.7653 76.0685 16.7653 99.4084C16.7653 122.584 24.9425 142.349 41.2969 158.703C57.6512 175.058 77.4162 183.235 100.592 183.235Z" fill="url(#paint0_linear_783_31)"/>
<defs>
<linearGradient id="paint0_linear_783_31" x1="100.592" y1="0.789062" x2="100.592" y2="198.028" gradientUnits="userSpaceOnUse">
<stop stop-color="#569205"/>
<stop offset="1" stop-color="#469545"/>
</linearGradient>
</defs>
</svg>
