<svg width="200" height="200" viewBox="0 0 200 200" fill="none" xmlns="http://www.w3.org/2000/svg">
<path d="M136.012 86.9265C139.794 86.9265 142.96 85.6521 145.508 83.1033C148.057 80.5545 149.332 77.389 149.332 73.6069C149.332 69.8248 148.057 66.6594 145.508 64.1105C142.96 61.5617 139.794 60.2873 136.012 60.2873C132.23 60.2873 129.065 61.5617 126.516 64.1105C123.967 66.6594 122.693 69.8248 122.693 73.6069C122.693 77.389 123.967 80.5545 126.516 83.1033C129.065 85.6521 132.23 86.9265 136.012 86.9265V86.9265ZM63.9878 86.9265C67.7699 86.9265 70.9354 85.6521 73.4842 83.1033C76.033 80.5545 77.3074 77.389 77.3074 73.6069C77.3074 69.8248 76.033 66.6594 73.4842 64.1105C70.9354 61.5617 67.7699 60.2873 63.9878 60.2873C60.2057 60.2873 57.0403 61.5617 54.4915 64.1105C51.9427 66.6594 50.6683 69.8248 50.6683 73.6069C50.6683 77.389 51.9427 80.5545 54.4915 83.1033C57.0403 85.6521 60.2057 86.9265 63.9878 86.9265V86.9265ZM68.921 134.778H131.326V122.692H68.921V134.778ZM100 198.663C86.516 198.663 73.772 196.073 61.7679 190.893C49.7639 185.713 39.2809 178.642 30.3189 169.68C21.357 160.718 14.2861 150.236 9.10629 138.231C3.92646 126.227 1.33655 113.401 1.33655 99.7527C1.33655 86.2687 3.92646 73.5247 9.10629 61.5206C14.2861 49.5166 21.357 39.0747 30.3189 30.195C39.2809 21.3153 49.7639 14.2855 61.7679 9.10568C73.772 3.92585 86.5982 1.33594 100.247 1.33594C113.731 1.33594 126.475 3.92585 138.479 9.10568C150.483 14.2855 160.925 21.3153 169.804 30.195C178.684 39.0747 185.714 49.5166 190.894 61.5206C196.073 73.5247 198.663 86.3509 198.663 99.9994C198.663 113.483 196.073 126.227 190.894 138.231C185.714 150.236 178.684 160.718 169.804 169.68C160.925 178.642 150.483 185.713 138.479 190.893C126.475 196.073 113.648 198.663 100 198.663ZM100 183.863C123.35 183.863 143.165 175.682 159.445 159.321C175.724 142.959 183.864 123.185 183.864 99.9994C183.864 76.649 175.724 56.8341 159.445 40.5547C143.165 24.2752 123.35 16.1355 100 16.1355C76.8141 16.1355 57.0403 24.2752 40.6786 40.5547C24.3169 56.8341 16.1361 76.649 16.1361 99.9994C16.1361 123.185 24.3169 142.959 40.6786 159.321C57.0403 175.682 76.8141 183.863 100 183.863Z" fill="url(#paint0_linear_784_116)"/>
<defs>
<linearGradient id="paint0_linear_784_116" x1="100" y1="1.33594" x2="100" y2="198.663" gradientUnits="userSpaceOnUse">
<stop stop-color="#A29100"/>
<stop offset="1" stop-color="#9E985C"/>
</linearGradient>
</defs>
</svg>
