<svg width="14" height="24" viewBox="0 0 14 24" fill="none" xmlns="http://www.w3.org/2000/svg">
<g clip-path="url(#clip0_823_38)">
<path d="M11.375 0.333328C12.8247 0.333328 14 1.50858 14 2.95833V21.0417C14 22.4914 12.8247 23.6667 11.375 23.6667H2.625C1.17525 23.6667 0 22.4914 0 21.0417V2.95833C0 1.50858 1.17525 0.333328 2.625 0.333328H11.375ZM11.375 2.08333H2.625C2.14175 2.08333 1.75 2.47508 1.75 2.95833V21.0417C1.75 21.5249 2.14175 21.9167 2.625 21.9167H11.375C11.8582 21.9167 12.25 21.5249 12.25 21.0417V2.95833C12.25 2.47508 11.8582 2.08333 11.375 2.08333ZM8.45702 18.4167C8.94026 18.4159 9.3326 18.8071 9.33333 19.2903C9.33406 19.7736 8.9429 20.1659 8.45965 20.1667L5.54298 20.1711C5.05974 20.1718 4.66739 19.7806 4.66667 19.2974C4.66594 18.8141 5.0571 18.4218 5.54035 18.4211L8.45702 18.4167Z" fill="#14FF00"/>
<g clip-path="url(#clip1_823_38)">
<path d="M8.62027 6.82748L8.92703 6.5207C9.00804 6.43969 9.00804 6.30846 8.92703 6.22745C8.84602 6.14644 8.71475 6.14644 8.63374 6.22745L8.26822 6.59296C7.89708 6.38765 7.47077 6.27038 7.01741 6.27038C6.56409 6.27038 6.13778 6.38765 5.76664 6.59296L5.40109 6.22743C5.32008 6.14642 5.18881 6.14642 5.1078 6.22743C5.02679 6.30844 5.02679 6.43967 5.1078 6.52068L5.41458 6.82746C4.81243 7.30264 4.4248 8.04032 4.4248 8.86512C4.4248 8.97965 4.51768 9.0747 4.63222 9.0747H9.40261C9.51714 9.0747 9.61002 8.97965 9.61002 8.86512C9.61002 8.04034 9.22239 7.30266 8.62027 6.82748ZM4.84945 8.65989C4.95416 7.57099 5.88649 6.68952 7.01741 6.68952C8.14833 6.68952 9.08066 7.57101 9.18537 8.65989H4.84945Z" fill="#20E456"/>
<path d="M9.40242 9.28213H4.63203C4.51749 9.28213 4.40723 9.37063 4.40723 9.4852V12.8383C4.40723 13.3911 4.87346 13.8451 5.42511 13.8451H5.44427V14.7741C5.44427 15.1743 5.76997 15.5 6.17019 15.5C6.57043 15.5 6.89611 15.1743 6.89611 14.7741V13.8451H7.10352V14.7741C7.10352 15.1743 7.42922 15.5 7.82944 15.5C8.22968 15.5 8.55537 15.1743 8.55537 14.7741V13.8451H8.60932C9.16096 13.8451 9.5924 13.3911 9.5924 12.8383V9.4852C9.59244 9.37063 9.51695 9.28213 9.40242 9.28213ZM9.17762 12.8383C9.17762 13.1624 8.93231 13.4303 8.60934 13.4303H8.36538C8.25085 13.4303 8.14058 13.5187 8.14058 13.6333V14.7741C8.14058 14.9456 8.00102 15.0852 7.82946 15.0852C7.65791 15.0852 7.51834 14.9456 7.51834 14.7741V13.6333C7.51834 13.5187 7.44288 13.4303 7.32832 13.4303H6.70611C6.59157 13.4303 6.4813 13.5187 6.4813 13.6333V14.7741C6.4813 14.9456 6.34174 15.0852 6.17019 15.0852C5.99863 15.0852 5.85907 14.9456 5.85907 14.7741V13.6333C5.85907 13.5187 5.7836 13.4303 5.66905 13.4303H5.42509C5.10212 13.4303 4.82203 13.1624 4.82203 12.8383V9.69693H9.1776V12.8383H9.17762Z" fill="#20E456"/>
<path d="M10.526 9.27779C10.1257 9.27779 9.80005 9.60369 9.80005 10.0043V12.6994C9.80005 13.1 10.1257 13.4259 10.526 13.4259C10.9262 13.4259 11.2519 13.1 11.2519 12.6994V10.0043C11.2519 9.60369 10.9262 9.27779 10.526 9.27779ZM10.8371 12.6994C10.8371 12.8713 10.6975 13.0111 10.526 13.0111C10.3544 13.0111 10.2148 12.8713 10.2148 12.6994V10.0043C10.2148 9.83247 10.3544 9.69261 10.526 9.69261C10.6975 9.69261 10.8371 9.83247 10.8371 10.0043V12.6994Z" fill="#20E456"/>
<path d="M3.47397 9.27779C3.07375 9.27779 2.74805 9.60369 2.74805 10.0043V12.6994C2.74805 13.1 3.07375 13.4259 3.47397 13.4259C3.87421 13.4259 4.19989 13.1 4.19989 12.6994V10.0043C4.19991 9.60369 3.87421 9.27779 3.47397 9.27779ZM3.78509 12.6994C3.78509 12.8713 3.64552 13.0111 3.47397 13.0111C3.30241 13.0111 3.16285 12.8713 3.16285 12.6994V10.0043C3.16285 9.83247 3.30241 9.69261 3.47397 9.69261C3.64552 9.69261 3.78509 9.83247 3.78509 10.0043V12.6994Z" fill="#20E456"/>
<path d="M6.08426 8.44816C6.31336 8.44816 6.49908 8.26244 6.49908 8.03334C6.49908 7.80424 6.31336 7.61852 6.08426 7.61852C5.85516 7.61852 5.66943 7.80424 5.66943 8.03334C5.66943 8.26244 5.85516 8.44816 6.08426 8.44816Z" fill="#20E456"/>
<path d="M7.95096 8.44816C8.18006 8.44816 8.36578 8.26244 8.36578 8.03334C8.36578 7.80424 8.18006 7.61852 7.95096 7.61852C7.72186 7.61852 7.53613 7.80424 7.53613 8.03334C7.53613 8.26244 7.72186 8.44816 7.95096 8.44816Z" fill="#20E456"/>
</g>
</g>
<defs>
<clipPath id="clip0_823_38">
<rect width="14" height="24" fill="white"/>
</clipPath>
<clipPath id="clip1_823_38">
<rect width="9.33333" height="9.33333" fill="white" transform="translate(2.33325 6.16667)"/>
</clipPath>
</defs>
</svg>
