<svg width="35" height="35" viewBox="0 0 35 35" fill="none" xmlns="http://www.w3.org/2000/svg">
<path d="M29.4314 11.0019C29.4314 10.9919 29.4347 10.929 29.4347 10.929C29.4331 5.76633 25.233 1.56641 20.0688 1.56641C16.4851 1.56641 13.3587 3.66395 11.7898 6.80193C10.9862 6.17894 10.0667 5.72831 9.02622 5.72831C6.47804 5.72831 4.40377 7.80097 4.40377 10.3491C4.40377 10.3491 4.43527 10.5745 4.46007 10.7485C1.8556 11.6348 0 14.0173 0 16.8338C0 18.5734 0.679288 20.2136 1.90867 21.443C3.13967 22.674 4.77829 23.3533 6.51791 23.3533H28.7538C32.1984 23.3533 35 20.5533 35 17.1105C35.0016 13.9062 32.5429 11.3531 29.4314 11.0019ZM28.7555 21.5109H6.51783C5.27024 21.5109 4.09562 21.0222 3.21087 20.1391C2.32943 19.256 1.84239 18.0813 1.84239 16.8321C1.84239 14.5905 3.43792 12.6603 5.63147 12.2395L6.48972 12.0755L6.34724 11.088L6.24616 10.3491C6.24616 8.81483 7.49206 7.57062 9.0263 7.57062C9.93424 7.57062 10.7891 8.01465 11.311 8.76353L12.3548 10.2663L12.9364 8.53326C13.9702 5.46816 16.8348 3.41041 20.0656 3.41041C24.2159 3.41041 27.5907 6.78365 27.5907 10.9307L27.498 12.6952L28.5368 12.7134L28.7538 12.7068C31.1827 12.7068 33.1593 14.6816 33.1593 17.1105C33.1593 19.5344 31.1843 21.5109 28.7555 21.5109ZM29.0338 30.1313V33.4333H22.5607V30.1313C22.5607 29.4586 23.1107 28.9119 23.7751 28.9119H27.8193C28.4854 28.9119 29.0322 29.4586 29.0338 30.1313ZM15.4248 26.4847C15.4248 25.2554 16.4223 24.258 17.6516 24.258C18.8809 24.258 19.8767 25.2554 19.8767 26.4847C19.8767 27.7141 18.8793 28.7114 17.6516 28.7114C16.4223 28.7114 15.4248 27.7157 15.4248 26.4847ZM23.5714 26.4847C23.5714 25.2554 24.5688 24.258 25.7981 24.258C27.0275 24.258 28.0249 25.2554 28.0249 26.4847C28.0249 27.7141 27.0274 28.7114 25.7981 28.7114C24.5688 28.7114 23.5714 27.7157 23.5714 26.4847ZM7.28168 26.4847C7.28168 25.2554 8.27911 24.258 9.50842 24.258C10.7377 24.258 11.7352 25.2554 11.7352 26.4847C11.7352 27.7141 10.7377 28.7114 9.50842 28.7114C8.27911 28.7114 7.28168 27.7157 7.28168 26.4847ZM20.889 30.1313V33.4333H14.4191V30.1313C14.4191 29.4586 14.9642 28.9119 15.6352 28.9119H19.6729C20.3439 28.9119 20.8873 29.4586 20.889 30.1313ZM12.7458 30.1313V33.4333H6.27266V30.1313C6.27266 29.4586 6.82276 28.9119 7.48707 28.9119H11.5313C12.1958 28.9119 12.7458 29.4586 12.7458 30.1313Z" fill="white"/>
</svg>
