<svg width="35" height="35" viewBox="0 0 35 35" fill="none" xmlns="http://www.w3.org/2000/svg">
<path d="M30.5489 0.457031H4.45104C1.99647 0.457031 0 2.71102 0 5.48223V25.1983C0 27.9697 1.99647 30.2237 4.45104 30.2237H18.3819V26.2315H5.96121V4.44922H30.5489C31.0536 4.44922 31.464 4.91244 31.464 5.48223V5.83253H32.7974C33.6003 5.83253 34.3438 6.08852 35 6.50173V5.48223C35 2.71102 33.0035 0.457031 30.5489 0.457031ZM3.0526 17.2315C2.12651 17.2315 1.37666 16.3842 1.37666 15.3406C1.37666 14.2959 2.12651 13.4486 3.0526 13.4486C3.97751 13.4486 4.72795 14.2959 4.72795 15.3406C4.72795 16.3842 3.97751 17.2315 3.0526 17.2315Z" fill="white"/>
<path d="M32.7974 8.49414H22.939C21.7262 8.49414 20.7393 9.60855 20.7393 10.9775V32.0608C20.7393 33.4299 21.7263 34.5442 22.939 34.5442H32.7975C34.0101 34.5442 34.9971 33.4298 34.9971 32.0608V10.9775C34.9971 9.60847 34.01 8.49414 32.7974 8.49414ZM23.0966 11.1556H32.6398V29.7717H23.0966V11.1556ZM26.7943 32.0004C26.7943 31.3305 27.2749 30.7878 27.867 30.7878C28.4615 30.7878 28.9426 31.3305 28.9426 32.0004C28.9426 32.6696 28.4615 33.2135 27.867 33.2135C27.2749 33.2135 26.7943 32.6696 26.7943 32.0004Z" fill="white"/>
</svg>
