<?xml version="1.0" encoding="UTF-8"?>
<svg xmlns="http://www.w3.org/2000/svg" xmlns:xlink="http://www.w3.org/1999/xlink" viewBox="0 0 24 24" width="24px" height="24px">
<g id="surface310402">
<path style=" stroke:none;fill-rule:nonzero;fill:rgb(100%,100%,100%);fill-opacity:1;" d="M 10.078125 1.441406 C 5.578125 1.441406 1.921875 5.097656 1.921875 9.601562 C 1.921875 14.101562 5.578125 17.761719 10.078125 17.761719 C 11.859375 17.761719 13.507812 17.1875 14.851562 16.214844 L 21.164062 22.515625 L 22.515625 21.164062 L 16.273438 14.910156 C 17.5 13.480469 18.238281 11.625 18.238281 9.601562 C 18.238281 5.097656 14.582031 1.441406 10.078125 1.441406 Z M 10.078125 2.398438 C 14.0625 2.398438 17.28125 5.617188 17.28125 9.601562 C 17.28125 13.582031 14.0625 16.800781 10.078125 16.800781 C 6.097656 16.800781 2.878906 13.582031 2.878906 9.601562 C 2.878906 5.617188 6.097656 2.398438 10.078125 2.398438 Z M 10.078125 2.398438 "/>
</g>
</svg>
