<svg width="20" height="20" viewBox="0 0 20 20" fill="none" xmlns="http://www.w3.org/2000/svg">
<path d="M19.0802 1.25195C18.5731 1.25195 18.1605 1.66456 18.1605 2.17172V4.22205C17.7556 3.64788 17.292 3.11861 16.7749 2.64107C16.6558 2.53105 16.4701 2.53845 16.3601 2.65755C16.2501 2.77665 16.2575 2.96236 16.3766 3.07234C17.1005 3.74088 17.7133 4.51739 18.1981 5.38041C18.2635 5.49681 18.3992 5.55438 18.5283 5.52064C18.6575 5.48687 18.7476 5.37015 18.7476 5.23665V2.17172C18.7476 1.98827 18.8968 1.83904 19.0803 1.83904C19.2637 1.83904 19.413 1.98827 19.413 2.17172V6.55528C19.413 6.73872 19.2637 6.88796 19.0803 6.88796H14.6967C14.5133 6.88796 14.364 6.73872 14.364 6.55528C14.364 6.37184 14.5133 6.2226 14.6967 6.2226H17.4063C17.51 6.2226 17.606 6.16788 17.6588 6.07865C17.7117 5.98941 17.7135 5.87888 17.6637 5.78796C16.1299 2.99004 13.1933 1.25195 10 1.25195C5.1766 1.25195 1.25245 5.1761 1.25245 9.99951C1.25245 11.9985 1.94713 13.9544 3.20846 15.507C3.26646 15.5784 3.35112 15.6154 3.43644 15.6154C3.50149 15.6154 3.56693 15.5939 3.62137 15.5497C3.7472 15.4475 3.76634 15.2626 3.66411 15.1368C2.48752 13.6885 1.83953 11.8641 1.83953 9.99951C1.83953 5.49982 5.50032 1.83904 10 1.83904C12.8098 1.83904 15.4065 3.28158 16.8928 5.63551H14.6967C14.1895 5.63551 13.7769 6.04812 13.7769 6.55528C13.7769 7.06244 14.1895 7.47505 14.6967 7.47505H19.0802C19.5874 7.47505 20 7.06244 20 6.55528V2.17172C20 1.66456 19.5874 1.25195 19.0802 1.25195Z" fill="#14FF00"/>
<path d="M12.8308 17.9696C12.6178 17.8471 12.3698 17.8151 12.1327 17.8792C11.4418 18.0659 10.7243 18.1605 10 18.1605C7.99065 18.1605 6.05843 17.4205 4.55937 16.077C4.43863 15.9688 4.25303 15.9789 4.14485 16.0996C4.03663 16.2204 4.04681 16.4059 4.16751 16.5142C5.77448 17.9544 7.84579 18.7476 10 18.7476C10.776 18.7476 11.545 18.6461 12.2859 18.4459C12.3716 18.4228 12.4612 18.4344 12.5383 18.4786C12.6153 18.5229 12.6704 18.5945 12.6936 18.6804C12.7414 18.8574 12.6363 19.0404 12.4593 19.0882C11.6617 19.3037 10.8343 19.4129 10 19.4129C4.80971 19.4129 0.587084 15.1903 0.587084 10C0.587084 4.80971 4.80971 0.587084 10 0.587084C11.9776 0.587084 13.8676 1.19037 15.4656 2.33174C15.5975 2.42599 15.7809 2.39542 15.8751 2.26348C15.9694 2.13155 15.9388 1.94822 15.8068 1.85401C14.1086 0.641096 12.1007 0 10 0C4.48599 0 0 4.48599 0 10C0 15.514 4.48599 20 10 20C10.886 20 11.7649 19.884 12.6123 19.655C12.8495 19.591 13.0476 19.4384 13.1699 19.2254C13.2923 19.0124 13.3245 18.7645 13.2604 18.5274C13.1964 18.2902 13.0439 18.0921 12.8308 17.9696Z" fill="#14FF00"/>
</svg>
