<svg width="34" height="34" viewBox="0 0 20 20" fill="none" xmlns="http://www.w3.org/2000/svg">
<g clip-path="url(#clip0_167_227)">
<path d="M9.51507 0.0118104C4.23309 0.263308 0.0648636 4.66218 0.0808871 9.95013C0.0857659 11.5607 0.474588 13.0809 1.16049 14.4241L0.107386 19.536C0.0504185 19.8125 0.299812 20.0546 0.574508 19.9896L5.58356 18.8028C6.87046 19.4439 8.31593 19.8141 9.84572 19.8375C15.2444 19.9199 19.746 15.6332 19.9142 10.2365C20.0946 4.45167 15.3202 -0.264655 9.51507 0.0118104ZM15.4919 15.4114C14.025 16.8783 12.0746 17.6862 10 17.6862C8.7853 17.6862 7.62233 17.4137 6.5433 16.8762L5.84572 16.5287L2.77466 17.2563L3.4211 14.1182L3.07743 13.4452C2.51728 12.3482 2.23325 11.1619 2.23325 9.91943C2.23325 7.84483 3.04113 5.89446 4.50807 4.42747C5.96191 2.97363 7.94414 2.1526 10.0002 2.1526C12.0747 2.15265 14.025 2.96052 15.492 4.42742C16.9589 5.89436 17.7668 7.84474 17.7668 9.91928C17.7668 11.9754 16.9458 13.9576 15.4919 15.4114Z" fill="#7AD06D"/>
<path d="M14.814 12.0703L12.8926 11.5186C12.64 11.4461 12.368 11.5178 12.184 11.7053L11.7141 12.184C11.516 12.3859 11.2154 12.4507 10.9532 12.3446C10.0443 11.9768 8.13235 10.2769 7.64408 9.4266C7.50322 9.18132 7.52651 8.87467 7.69947 8.65087L8.10967 8.12018C8.27039 7.91225 8.3043 7.63301 8.19802 7.39266L7.38967 5.5644C7.19605 5.1265 6.63647 4.99903 6.27089 5.30821C5.73465 5.76175 5.0984 6.45095 5.02105 7.21449C4.88469 8.56066 5.46201 10.2576 7.64518 12.2952C10.1673 14.6493 12.1871 14.9603 13.5021 14.6417C14.248 14.461 14.8441 13.7368 15.2202 13.1438C15.4767 12.7395 15.2742 12.2025 14.814 12.0703Z" fill="#7AD06D"/>
</g>
<defs>
<clipPath id="clip0_167_227">
<rect width="20" height="20" fill="white"/>
</clipPath>
</defs>
</svg>
