<svg width="40" height="40" viewBox="0 0 40 40" fill="none" xmlns="http://www.w3.org/2000/svg">
<path d="M38.4 0H1.6C0.715 0 0 0.715 0 1.6V38.4C0 39.285 0.715 40 1.6 40H38.4C39.285 40 40 39.285 40 38.4V1.6C40 0.715 39.285 0 38.4 0ZM20.055 20.305L10.455 28.355C10.195 28.575 9.8 28.39 9.8 28.05V24.915C9.8 24.8 9.855 24.685 9.945 24.61L15.435 20L9.945 15.39C9.89904 15.3537 9.86206 15.3073 9.83691 15.2544C9.81177 15.2015 9.79914 15.1436 9.8 15.085V11.95C9.8 11.61 10.195 11.425 10.455 11.645L20.055 19.69C20.25 19.85 20.25 20.145 20.055 20.305ZM30.2 28.05C30.2 28.27 30.03 28.45 29.825 28.45H20.575C20.37 28.45 20.2 28.27 20.2 28.05V25.65C20.2 25.43 20.37 25.25 20.575 25.25H29.825C30.03 25.25 30.2 25.43 30.2 25.65V28.05Z" fill="#20E456"/>
</svg>
