<svg width="24" height="24" viewBox="0 0 24 24" fill="none" xmlns="http://www.w3.org/2000/svg">
<path d="M12.0001 0C11.5348 0 11.1576 0.377143 11.1576 0.842449V17.0645L8.27764 14.1845C7.94947 13.8563 7.41559 13.8563 7.08743 14.1845C6.75927 14.5127 6.75927 15.0465 7.08743 15.3747L11.4025 19.6898C11.5642 19.8514 11.7797 19.9347 11.9952 19.9347C12.2107 19.9347 12.4262 19.8514 12.5878 19.6898L16.9029 15.3747C17.2311 15.0465 17.2311 14.5127 16.9029 14.1845C16.5748 13.8563 16.0409 13.8563 15.7127 14.1845L12.8327 17.0645V0.837551C12.8376 0.372245 12.4654 0 12.0001 0Z" fill="white"/>
<path d="M22.6335 23.1625V18.2792C22.6335 17.8139 22.2564 17.4367 21.7911 17.4367C21.3258 17.4367 20.9486 17.8139 20.9486 18.2792V22.3249H3.04658V18.2792C3.04658 17.8139 2.66943 17.4367 2.20903 17.4367C1.74862 17.4367 1.36658 17.8139 1.36658 18.2792V23.1625C1.36658 23.6278 1.74372 24 2.20903 24H21.7911C22.2564 24 22.6335 23.6278 22.6335 23.1625Z" fill="white"/>
</svg>
