<svg width="200" height="200" viewBox="0 0 200 200" fill="none" xmlns="http://www.w3.org/2000/svg">
<path d="M135.056 86.2806C138.834 86.2806 141.995 85.0077 144.541 82.4618C147.087 79.916 148.36 76.7542 148.36 72.9765C148.36 69.1987 147.087 66.037 144.541 63.4911C141.995 60.9452 138.834 59.6723 135.056 59.6723C131.278 59.6723 128.116 60.9452 125.571 63.4911C123.025 66.037 121.752 69.1987 121.752 72.9765C121.752 76.7542 123.025 79.916 125.571 82.4618C128.116 85.0077 131.278 86.2806 135.056 86.2806V86.2806ZM63.1149 86.2806C66.8927 86.2806 70.0545 85.0077 72.6003 82.4618C75.1462 79.916 76.4191 76.7542 76.4191 72.9765C76.4191 69.1987 75.1462 66.037 72.6003 63.4911C70.0545 60.9452 66.8927 59.6723 63.1149 59.6723C59.3372 59.6723 56.1754 60.9452 53.6296 63.4911C51.0837 66.037 49.8108 69.1987 49.8108 72.9765C49.8108 76.7542 51.0837 79.916 53.6296 82.4618C56.1754 85.0077 59.3372 86.2806 63.1149 86.2806V86.2806ZM99.0855 114.86C88.0808 114.86 78.1027 117.94 69.1511 124.099C60.1995 130.258 53.5885 138.43 49.318 148.613H62.3758C65.9893 141.715 71.1221 136.377 77.7742 132.599C84.4262 128.821 91.6121 126.932 99.3318 126.932C107.052 126.932 114.155 128.821 120.643 132.599C127.131 136.377 132.264 141.715 136.041 148.613H148.853C144.747 138.43 138.177 130.258 129.143 124.099C120.109 117.94 110.09 114.86 99.0855 114.86V114.86ZM99.0855 197.888C85.617 197.888 72.8878 195.301 60.8976 190.127C48.9074 184.953 38.4365 177.89 29.485 168.939C20.5334 159.987 13.4707 149.516 8.29686 137.526C3.12302 125.536 0.536102 112.725 0.536102 99.092C0.536102 85.6236 3.12302 72.8943 8.29686 60.9042C13.4707 48.914 20.5334 38.4842 29.485 29.6148C38.4365 20.7453 48.9074 13.7237 60.8976 8.54982C72.8878 3.37598 85.6992 0.789062 99.3318 0.789062C112.8 0.789062 125.53 3.37598 137.52 8.54982C149.51 13.7237 159.94 20.7453 168.809 29.6148C177.679 38.4842 184.7 48.914 189.874 60.9042C195.048 72.8943 197.635 85.7058 197.635 99.3384C197.635 112.807 195.048 125.536 189.874 137.526C184.7 149.516 177.679 159.987 168.809 168.939C159.94 177.89 149.51 184.953 137.52 190.127C125.53 195.301 112.718 197.888 99.0855 197.888ZM99.0855 183.105C122.409 183.105 142.201 174.934 158.461 158.591C174.722 142.248 182.852 122.498 182.852 99.3384C182.852 76.0151 174.722 56.2231 158.461 39.9624C142.201 23.7018 122.409 15.5715 99.0855 15.5715C75.9264 15.5715 56.1754 23.7018 39.8327 39.9624C23.4899 56.2231 15.3185 76.0151 15.3185 99.3384C15.3185 122.498 23.4899 142.248 39.8327 158.591C56.1754 174.934 75.9264 183.105 99.0855 183.105Z" fill="url(#paint0_linear_784_57)"/>
<defs>
<linearGradient id="paint0_linear_784_57" x1="99.0855" y1="0.789062" x2="99.0855" y2="197.888" gradientUnits="userSpaceOnUse">
<stop stop-color="#B55F11"/>
<stop offset="1" stop-color="#A67344"/>
</linearGradient>
</defs>
</svg>
