<svg width="24" height="24" viewBox="0 0 24 24" fill="none" xmlns="http://www.w3.org/2000/svg">
<path d="M4.87576 4.68675C5.20576 4.938 5.54476 5.17725 5.89651 5.391C5.71726 5.823 5.55826 6.279 5.41576 6.75H6.86101C6.94351 6.5085 7.02226 6.26325 7.11601 6.03375C7.78576 6.3405 8.48401 6.5745 9.20026 6.75H14.8035C15.5288 6.57375 16.2375 6.3345 16.9125 6.021C17.0063 6.2535 17.0843 6.504 17.1698 6.75H18.588C18.4463 6.27825 18.288 5.82375 18.1073 5.391C18.4605 5.17725 18.8003 4.938 19.1273 4.68675C19.7573 5.30025 20.3063 5.994 20.7615 6.75H22.7775C20.8245 2.7615 16.7348 0 12.0015 0C7.26676 0 3.17851 2.7615 1.22626 6.75H3.24076C3.69676 5.994 4.24576 5.29875 4.87576 4.68675ZM18.0818 3.80475C17.8973 3.93675 17.712 4.0665 17.5193 4.1865C17.28 3.74625 17.0198 3.3285 16.7385 2.952C17.2125 3.1995 17.658 3.48825 18.0818 3.80475ZM16.3455 4.8165C15.7395 5.09475 15.1155 5.319 14.4735 5.4765C14.2943 4.1805 14.0355 2.9295 13.6673 1.9725C14.7038 2.49675 15.6218 3.49125 16.3455 4.8165ZM11.865 1.78425C11.9108 1.7835 11.955 1.77825 12.0015 1.77825C12.048 1.77825 12.0923 1.7835 12.138 1.78425C12.4665 2.322 12.8618 3.6645 13.1535 5.706C12.7718 5.751 12.3878 5.7795 12.0023 5.7795C11.6145 5.7795 11.2313 5.751 10.851 5.706C11.1413 3.6645 11.5365 2.322 11.865 1.78425ZM10.3283 1.9935C9.96451 2.9475 9.70801 4.18875 9.52951 5.47725C8.89726 5.32275 8.28376 5.10225 7.68976 4.83225C8.41051 3.519 9.31576 2.5245 10.3283 1.9935ZM7.26301 2.952C6.98251 3.3285 6.72376 3.747 6.48151 4.1865C6.28951 4.06725 6.10426 3.9375 5.91976 3.8055C6.34426 3.48825 6.78901 3.1995 7.26301 2.952Z" fill="white"/>
<path d="M19.1273 19.314C18.7988 19.062 18.4568 18.8235 18.1073 18.6083C18.285 18.1778 18.4448 17.7218 18.588 17.25H17.1698C17.088 17.496 17.0078 17.745 16.914 17.9783C16.2383 17.6648 15.528 17.4278 14.8043 17.25H9.20177C8.48552 17.4255 7.78802 17.6602 7.11827 17.9662C7.02302 17.736 6.94502 17.49 6.86177 17.25H5.41727C5.55902 17.7218 5.71802 18.177 5.89727 18.609C5.54477 18.8228 5.20652 19.062 4.87652 19.3125C4.24727 18.7005 3.69827 18.006 3.24377 17.25H1.22852C3.18077 21.237 7.26902 24 12.003 24C16.737 24 20.826 21.237 22.7783 17.25H20.7623C20.3063 18.006 19.7573 18.7005 19.1273 19.314ZM5.91977 20.196C6.10427 20.064 6.29027 19.9335 6.48152 19.815C6.72377 20.2545 6.98252 20.6723 7.26302 21.0488C6.78902 20.8005 6.34427 20.5125 5.91977 20.196ZM7.68827 19.1693C8.28227 18.9023 8.89577 18.6795 9.52802 18.5258C9.70652 19.815 9.96302 21.0518 10.3268 22.0095C9.31577 21.4763 8.41052 20.4803 7.68827 19.1693ZM12.138 22.2158C12.0923 22.2173 12.048 22.2217 12.0015 22.2217C11.955 22.2217 11.9108 22.2173 11.865 22.2158C11.5365 21.678 11.1405 20.3348 10.8495 18.294C11.2298 18.249 11.6138 18.2197 12.0008 18.2197C12.3885 18.2197 12.7718 18.249 13.1528 18.294C12.8595 20.3348 12.4665 21.678 12.138 22.2158ZM13.6673 22.0267C14.0355 21.0705 14.2943 19.8195 14.4735 18.5228C15.1155 18.681 15.7395 18.9052 16.3455 19.1835C15.6218 20.5095 14.7038 21.504 13.6673 22.0267ZM16.7385 21.048C17.0198 20.67 17.28 20.2515 17.5193 19.8135C17.712 19.9335 17.8973 20.064 18.0818 20.196C17.658 20.5125 17.2125 20.8005 16.7385 21.048Z" fill="white"/>
<path d="M3.59625 14.385L4.074 12.708C4.20075 12.261 4.29825 11.8207 4.386 11.2252H4.4055C4.503 11.8102 4.59075 12.2407 4.70775 12.708L5.15625 14.385H6.5505L8.013 9.61874H6.561L6.1515 11.5095C6.04425 12.0562 5.94675 12.5917 5.8785 13.1377H5.859C5.7615 12.591 5.63475 12.057 5.508 11.5192L5.03025 9.61874H3.86025L3.35325 11.5777C3.23625 12.045 3.09975 12.5925 3.00225 13.1377H2.98275C2.90475 12.591 2.80725 12.0645 2.70975 11.5672L2.3295 9.61649H0.817505L2.202 14.3842H3.59625V14.385Z" fill="white"/>
<path d="M13.7355 11.508C13.6267 12.0547 13.5315 12.5902 13.464 13.137H13.4437C13.347 12.5902 13.2195 12.0555 13.0935 11.5177L12.6135 9.61724H11.4435L10.9365 11.5762C10.8195 12.0442 10.683 12.591 10.5855 13.137H10.566C10.488 12.5902 10.3905 12.063 10.293 11.5657L9.91274 9.61499H8.40149L9.78599 14.3827H11.1802L11.658 12.7065C11.7847 12.2572 11.8822 11.8185 11.97 11.223H11.9895C12.087 11.808 12.1755 12.2385 12.2925 12.7065L12.741 14.3827H14.1352L15.5955 9.61499H14.142L13.7355 11.508Z" fill="white"/>
<path d="M21.3225 11.508C21.2145 12.0547 21.1177 12.5902 21.0502 13.137H21.0315C20.9347 12.5902 20.8065 12.0555 20.6797 11.5177L20.202 9.61724H19.0305L18.5227 11.5762C18.4065 12.0442 18.2693 12.591 18.171 13.137H18.153C18.075 12.5902 17.9782 12.063 17.8807 11.5657L17.4997 9.61499H15.987L17.3738 14.3827H18.7657L19.2457 12.7065C19.3717 12.2572 19.47 11.8185 19.5577 11.223H19.5757C19.6725 11.808 19.7602 12.2385 19.8772 12.7065L20.3257 14.3827H21.72L23.1817 9.61499H21.7283L21.3225 11.508Z" fill="white"/>
</svg>
