<svg width="19" height="35" viewBox="0 0 19 35" fill="none" xmlns="http://www.w3.org/2000/svg">
<path d="M17.1252 3.35547H1.8747C1.74845 3.35547 1.64594 3.45792 1.64594 3.58423V29.5102V31.1877C1.64594 31.314 1.74839 31.4165 1.8747 31.4165H17.1252C17.2515 31.4165 17.354 31.3141 17.354 31.1877V29.5102V3.58423C17.354 3.45792 17.2515 3.35547 17.1252 3.35547ZM16.8965 30.959H2.10346V29.7389H16.8965V30.959ZM16.8965 29.2814H2.10346V3.81299H16.8965V29.2814Z" fill="white"/>
<path d="M6.40712 2.71928C6.60386 2.71928 6.76335 2.55979 6.76335 2.36306C6.76335 2.16632 6.60386 2.00684 6.40712 2.00684C6.21039 2.00684 6.0509 2.16632 6.0509 2.36306C6.0509 2.55979 6.21039 2.71928 6.40712 2.71928Z" fill="white"/>
<path d="M5.31465 30.0761H5.77096C5.90882 30.0761 6.02167 30.1847 6.02167 30.3189C6.02167 30.4531 5.90945 30.5617 5.77096 30.5617H5.32383C5.28664 30.5617 5.25793 30.5923 5.25793 30.6276C5.25793 30.6648 5.28722 30.694 5.32383 30.694H5.77096C5.98205 30.694 6.15346 30.5251 6.15346 30.3182C6.15346 30.1109 5.98141 29.9424 5.77096 29.9424H5.31465L5.32804 29.9102L5.09558 30.009L5.32804 30.1065L5.31465 30.0761Z" fill="white"/>
<path d="M9.34198 30.3909V30.7208C9.34198 30.7423 9.36029 30.7599 9.3823 30.7599H9.59096C9.61291 30.7599 9.63058 30.7423 9.63058 30.7208V30.4518H9.72327V30.7208C9.72327 30.7423 9.74158 30.7599 9.76352 30.7599H9.9417C9.96364 30.7599 9.98131 30.7423 9.98131 30.7208V30.3909H10.1656C10.1814 30.3909 10.1966 30.3806 10.2027 30.3658C10.2082 30.3506 10.2046 30.3329 10.193 30.3219L9.69405 29.8552C9.67823 29.8411 9.65444 29.8411 9.63913 29.8559L9.1603 30.3231C9.14869 30.3341 9.14569 30.3512 9.15111 30.3658C9.15724 30.381 9.17184 30.3909 9.18837 30.3909H9.34198V30.3909ZM9.6672 29.9395L10.0643 30.3109H9.94106C9.91912 30.3109 9.90145 30.3286 9.90145 30.3506V30.6799H9.8025V30.4109C9.8025 30.389 9.78483 30.3713 9.76289 30.3713H9.58969C9.56762 30.3713 9.54944 30.389 9.54944 30.4109V30.6799H9.4207V30.3506C9.4207 30.3286 9.40303 30.3109 9.38102 30.3109H9.28527L9.6672 29.9395Z" fill="white"/>
<path d="M13.0533 30.6437H13.6536C13.6957 30.6437 13.7299 30.609 13.7299 30.5675V30.4625H13.9049V30.2435V30.0244H13.1803V30.1672H13.0533C13.0112 30.1672 12.9771 30.202 12.9771 30.2434V30.5674C12.9771 30.609 13.0112 30.6437 13.0533 30.6437ZM13.1296 30.3198H13.5775V30.4913H13.1296V30.3198Z" fill="white"/>
<path d="M17.5065 0H1.49342C0.904734 0 0.425903 0.478895 0.425903 1.06751V33.9325C0.425903 34.5212 0.904734 35 1.49342 35H17.5065C18.0953 35 18.574 34.5212 18.574 33.9325V1.06751C18.574 0.478895 18.0953 0 17.5065 0ZM17.6591 33.9325C17.6591 34.0167 17.5908 34.085 17.5065 34.085H1.49342C1.40921 34.085 1.34089 34.0168 1.34089 33.9325V1.06751C1.34089 0.983372 1.40921 0.914986 1.49342 0.914986H17.5065C17.5907 0.914986 17.6591 0.983308 17.6591 1.06751V33.9325Z" fill="white"/>
</svg>
