<svg width="37" height="37" viewBox="0 0 37 37" fill="none" xmlns="http://www.w3.org/2000/svg">
<rect x="6" y="11" width="21" height="14" fill="#D9D9D9"/>
<path d="M13.3935 0.389966C13.581 0.453759 13.7642 0.529642 13.9419 0.617137L16.0798 1.66971C16.66 1.95539 17.34 1.95539 17.9202 1.66971L20.0581 0.617137C22.3291 -0.500965 25.0765 0.433627 26.1946 2.70461L26.3171 2.97515L26.4218 3.25305L27.1892 5.50905C27.3975 6.12133 27.8783 6.60216 28.4906 6.81045L30.7466 7.57788C33.1431 8.39309 34.4249 10.9966 33.6097 13.3931C33.5459 13.5806 33.47 13.7638 33.3825 13.9415L32.3299 16.0794C32.0443 16.6596 32.0443 17.3396 32.3299 17.9199L33.3825 20.0578C34.5006 22.3287 33.566 25.0761 31.2951 26.1942C31.1173 26.2817 30.9341 26.3576 30.7466 26.4214L28.4906 27.1888C27.8783 27.3971 27.3975 27.878 27.1892 28.4902L26.4218 30.7462C25.6066 33.1427 23.003 34.4245 20.6066 33.6093C20.419 33.5455 20.2358 33.4697 20.0581 33.3822L17.9202 32.3296C17.34 32.0439 16.66 32.0439 16.0798 32.3296L13.9419 33.3822C11.6709 34.5003 8.92352 33.5657 7.80542 31.2947C7.71792 31.117 7.64204 30.9338 7.57825 30.7462L6.81081 28.4902C6.60253 27.878 6.1217 27.3971 5.50941 27.1888L3.25341 26.4214C0.85697 25.6062 -0.424875 23.0026 0.390333 20.6062C0.454125 20.4187 0.530008 20.2355 0.617503 20.0578L1.67008 17.9199C1.95575 17.3396 1.95575 16.6596 1.67008 16.0794L0.617503 13.9415C-0.500599 11.6705 0.433993 8.92315 2.70497 7.80505C2.88269 7.71756 3.06588 7.64167 3.25341 7.57788L5.50941 6.81045C6.1217 6.60216 6.60253 6.12133 6.81081 5.50905L7.57825 3.25305C8.39345 0.856604 10.997 -0.425241 13.3935 0.389966ZM22.7828 11.9491L13.7507 20.9812L10.4603 17.0328C10.0183 16.5024 9.23013 16.4307 8.69978 16.8727C8.16944 17.3147 8.09778 18.1029 8.53974 18.6332L12.7064 23.6332C13.177 24.1979 14.0308 24.2366 14.5506 23.7169L24.5506 13.7169C25.0387 13.2287 25.0387 12.4373 24.5506 11.9491C24.0624 11.4609 23.271 11.4609 22.7828 11.9491Z" fill="#1EA6C6"/>
</svg>
