<svg width="20" height="20" viewBox="0 0 20 20" fill="none" xmlns="http://www.w3.org/2000/svg">
<path d="M17.3049 0H2.69516C1.20676 0 0.00012207 1.20659 0.00012207 2.69504V17.3049C0.00012207 18.7933 1.20671 19.9999 2.69516 19.9999H9.90061L9.91289 12.853H8.05613C7.81483 12.853 7.61899 12.6579 7.61806 12.4166L7.60915 10.1129C7.60822 9.87025 7.80466 9.67308 8.04728 9.67308H9.90066V7.44709C9.90066 4.86384 11.4783 3.45724 13.7828 3.45724H15.6737C15.9157 3.45724 16.1118 3.65339 16.1118 3.89537V5.83789C16.1118 6.07978 15.9158 6.27587 15.674 6.27602L14.5135 6.27655C13.2603 6.27655 13.0176 6.87207 13.0176 7.74602V9.67313H15.7714C16.0338 9.67313 16.2373 9.90225 16.2064 10.1628L15.9334 12.4666C15.9072 12.687 15.7203 12.8531 15.4983 12.8531H13.0299L13.0176 20H17.305C18.7934 20 20 18.7934 20 17.305V2.69504C19.9999 1.20659 18.7933 0 17.3049 0Z" fill="#475993"/>
</svg>
