<svg width="28" height="28" viewBox="0 0 40 40" fill="none" xmlns="http://www.w3.org/2000/svg">
<g clip-path="url(#clip0_534_149)">
<path d="M39.3032 7.13154H20.2053V7.13034L3.42751 2.03097C3.21322 1.96573 2.98516 2.00464 2.80797 2.13752C2.63079 2.26861 2.52544 2.47872 2.52544 2.6978V7.13154H0.69915C0.314857 7.13154 0 7.44639 0 7.83069V32.544C0 32.9295 0.314857 33.2431 0.69915 33.2431H15.1945V36.011H12.5434V36.7101V37.4087H27.4554V36.7101V36.011H24.8055V33.2431H39.3009C39.6845 33.2431 40 32.9295 40 32.544V7.83069C40.0024 7.444 39.6899 7.13154 39.3032 7.13154ZM3.92194 7.13154V3.64177L15.4023 7.13214L17.7038 7.83129L19.3032 8.31794V8.53044V31.5695L3.92374 26.8939V8.52984V7.83069L3.92194 7.13154ZM38.6041 31.846H20.7003V8.52984H23.4467V11.1235L24.8079 10.2627L26.169 11.1235V8.52984H38.6077V31.8448H38.6035V31.846H38.6041ZM16.9328 12.8043L11.4851 11.1463V10.2256L16.9328 11.8861V12.8043ZM16.9328 16.3145L11.4851 14.6558V13.7328L16.9328 15.392V16.3145ZM16.9328 19.8527L6.03316 16.5371V15.6189L16.9328 18.9327V19.8527ZM16.9328 23.3592L6.03316 20.0461V19.1242L16.9328 22.4374V23.3592ZM16.9328 26.9011L6.03316 23.5861V22.6655L16.9328 25.9781V26.9011ZM6.96576 13.5526L7.24829 12.6272L8.89022 13.1252L9.18233 14.2254L9.66 14.3709L10.1413 14.5163L8.61128 9.07575L8.08692 8.91772L7.56255 8.7597L6.03256 13.2689L6.50305 13.4131L6.96576 13.5526ZM8.07614 10.0251L8.6466 12.1962L7.5003 11.8478L8.07614 10.0251ZM26.8472 16.0804C26.8472 15.2939 27.38 15.0078 28.0348 15.4495L33.1683 18.9087C33.8214 19.3463 33.8214 20.0646 33.1683 20.5022L28.0348 23.962C27.3794 24.402 26.8472 24.1153 26.8472 23.3311V16.0804Z" fill="#05FE2D"/>
</g>
<defs>
<clipPath id="clip0_534_149">
<rect width="40" height="40" fill="white"/>
</clipPath>
</defs>
</svg>
