<svg width="20" height="24" viewBox="0 0 24 28" fill="none" xmlns="http://www.w3.org/2000/svg">
<path d="M12 28C8.5 27.1833 5.625 25.2875 3.375 22.3125C1.125 19.3375 0 16.0767 0 12.53V4.2L12 0L24 4.2V12.53C24 16.0767 22.875 19.3375 20.625 22.3125C18.375 25.2875 15.5 27.1833 12 28ZM12 25.83C14.65 25.0133 16.8438 23.5142 18.5813 21.3325C20.3188 19.1508 21.3375 16.7067 21.6375 14H12V2.275L2.25 5.67V12.53C2.25 12.81 2.25625 13.0492 2.26875 13.2475C2.28125 13.4458 2.3125 13.6967 2.3625 14H12V25.83Z" fill="white"/>
</svg>
