<svg width="24" height="24" viewBox="0 0 24 24" fill="none" xmlns="http://www.w3.org/2000/svg">
<path d="M22.0209 6.81422H1.97911C0.887859 6.81422 0 7.70204 0 8.79333V12.8017C0 13.893 0.887859 14.7808 1.97911 14.7808H15.6075C15.815 14.7808 15.9833 14.6125 15.9833 14.405C15.9833 14.1974 15.8151 14.0292 15.6075 14.0292H1.97911C1.30223 14.0292 0.751547 13.4785 0.751547 12.8016V8.79329C0.751547 8.11641 1.30223 7.56572 1.97911 7.56572H22.0208C22.6977 7.56572 23.2484 8.11641 23.2484 8.79329V10.7975C23.2484 11.005 23.4166 11.1733 23.6242 11.1733C23.8317 11.1733 24 11.005 24 10.7975V8.79329C24 7.70204 23.1121 6.81422 22.0209 6.81422Z" fill="white"/>
<path d="M22.3966 11.686V10.7975C22.3966 9.4852 21.3289 8.41753 20.0167 8.41753C18.7044 8.41753 17.6367 9.4852 17.6367 10.7975V11.686C17.1713 11.8432 16.8351 12.2838 16.8351 12.8017V14.0041C16.8351 15.7585 18.2623 17.1858 20.0167 17.1858C21.7711 17.1858 23.1984 15.7585 23.1984 14.0041V12.8017C23.1983 12.2838 22.8621 11.8432 22.3966 11.686ZM18.3883 10.7975C18.3883 9.89962 19.1188 9.16912 20.0167 9.16912C20.9146 9.16912 21.6451 9.89962 21.6451 10.7975V11.6242H18.3883V10.7975V10.7975ZM22.4467 14.0042C22.4467 15.3441 21.3566 16.4342 20.0167 16.4342C18.6768 16.4342 17.5866 15.3441 17.5866 14.0042V12.8017C17.5866 12.5669 17.7777 12.3758 18.0125 12.3758H22.0209C22.2557 12.3758 22.4468 12.5669 22.4468 12.8017V14.0042H22.4467Z" fill="white"/>
<path d="M20.0167 13.2276C19.5884 13.2276 19.2401 13.5759 19.2401 14.0042C19.2401 14.2961 19.4021 14.5507 19.6409 14.6834V14.9437C19.6409 15.1512 19.8091 15.3195 20.0167 15.3195C20.2242 15.3195 20.3925 15.1512 20.3925 14.9437V14.6834C20.6312 14.5508 20.7933 14.2962 20.7933 14.0042C20.7933 13.5759 20.4449 13.2276 20.0167 13.2276Z" fill="white"/>
<path d="M11.1714 11.2737L10.3466 10.7975L11.1714 10.3212C11.3511 10.2174 11.4127 9.98761 11.3089 9.80789C11.2052 9.62813 10.9753 9.56653 10.7956 9.67036L9.97076 10.1466V9.19411C9.97076 8.9866 9.80253 8.81831 9.59496 8.81831C9.3874 8.81831 9.21917 8.98655 9.21917 9.19411V10.1466L8.39431 9.67036C8.21454 9.56653 7.98476 9.62817 7.88098 9.80789C7.7772 9.98761 7.83879 10.2174 8.01851 10.3212L8.84337 10.7975L8.01851 11.2737C7.83879 11.3775 7.7772 11.6073 7.88098 11.787C7.95059 11.9076 8.07687 11.975 8.20676 11.975C8.27051 11.975 8.3351 11.9588 8.39431 11.9246L9.21917 11.4483V12.4008C9.21917 12.6083 9.3874 12.7766 9.59496 12.7766C9.80253 12.7766 9.97076 12.6084 9.97076 12.4008V11.4483L10.7956 11.9246C10.8548 11.9588 10.9194 11.975 10.9832 11.975C11.1131 11.975 11.2393 11.9075 11.3089 11.787C11.4127 11.6073 11.3511 11.3775 11.1714 11.2737Z" fill="white"/>
<path d="M6.36142 11.2737L5.53656 10.7975L6.36142 10.3212C6.54114 10.2174 6.60273 9.98761 6.49895 9.80789C6.39517 9.62813 6.16534 9.56653 5.98562 9.67036L5.16076 10.1466V9.19411C5.16076 8.9866 4.99253 8.81831 4.78497 8.81831C4.5774 8.81831 4.40917 8.98655 4.40917 9.19411V10.1466L3.58431 9.67036C3.40454 9.56653 3.17476 9.62817 3.07098 9.80789C2.9672 9.98761 3.02879 10.2174 3.20851 10.3212L4.03337 10.7975L3.20851 11.2737C3.02879 11.3775 2.9672 11.6073 3.07098 11.787C3.14059 11.9076 3.26687 11.975 3.39676 11.975C3.46051 11.975 3.52511 11.9588 3.58431 11.9246L4.40917 11.4483V12.4008C4.40917 12.6083 4.5774 12.7766 4.78497 12.7766C4.99253 12.7766 5.16076 12.6084 5.16076 12.4008V11.4483L5.98562 11.9246C6.04478 11.9588 6.10942 11.975 6.17317 11.975C6.30306 11.975 6.42934 11.9075 6.49895 11.787C6.60273 11.6073 6.54114 11.3775 6.36142 11.2737Z" fill="white"/>
<path d="M15.9815 11.2737L15.1566 10.7975L15.9815 10.3212C16.1612 10.2174 16.2228 9.98761 16.119 9.80789C16.0152 9.62813 15.7854 9.56653 15.6057 9.67036L14.7808 10.1466V9.19411C14.7808 8.9866 14.6126 8.81831 14.405 8.81831C14.1975 8.81831 14.0292 8.98655 14.0292 9.19411V10.1466L13.2044 9.67036C13.0246 9.56653 12.7948 9.62817 12.691 9.80789C12.5873 9.98761 12.6489 10.2174 12.8286 10.3212L13.6534 10.7975L12.8286 11.2737C12.6489 11.3775 12.5873 11.6073 12.691 11.787C12.7606 11.9076 12.8869 11.975 13.0168 11.975C13.0806 11.975 13.1452 11.9588 13.2044 11.9246L14.0292 11.4483V12.4008C14.0292 12.6083 14.1975 12.7766 14.405 12.7766C14.6126 12.7766 14.7808 12.6084 14.7808 12.4008V11.4483L15.6057 11.9246C15.6648 11.9588 15.7295 11.975 15.7932 11.975C15.9231 11.975 16.0494 11.9075 16.119 11.787C16.2227 11.6073 16.1612 11.3775 15.9815 11.2737Z" fill="white"/>
</svg>
