<svg width="24" height="24" viewBox="0 0 24 24" fill="none" xmlns="http://www.w3.org/2000/svg">
<path d="M1.85518 4.83757C1.9477 4.83757 2.03882 4.8 2.1041 4.73425C2.16986 4.66896 2.20743 4.57785 2.20743 4.48532C2.20743 4.3928 2.16986 4.30168 2.1041 4.2364C2.03882 4.17065 1.9477 4.13307 1.85518 4.13307C1.76266 4.13307 1.67154 4.17065 1.60626 4.2364C1.5405 4.30168 1.50293 4.3928 1.50293 4.48532C1.50293 4.57785 1.5405 4.66896 1.60626 4.73425C1.67154 4.8 1.76266 4.83757 1.85518 4.83757Z" fill="white"/>
<path d="M2.98238 4.83757C3.0749 4.83757 3.16602 4.8 3.2313 4.73425C3.29705 4.66896 3.33463 4.57785 3.33463 4.48532C3.33463 4.3928 3.29705 4.30168 3.2313 4.2364C3.16602 4.17065 3.0749 4.13307 2.98238 4.13307C2.88985 4.13307 2.79874 4.17065 2.73345 4.2364C2.6677 4.30168 2.63013 4.3928 2.63013 4.48532C2.63013 4.57785 2.6677 4.66896 2.73345 4.73425C2.79874 4.8 2.88985 4.83757 2.98238 4.83757Z" fill="white"/>
<path d="M4.10957 4.83757C4.2021 4.83757 4.29321 4.8 4.3585 4.73425C4.42425 4.66896 4.46183 4.57785 4.46183 4.48532C4.46183 4.3928 4.42425 4.30168 4.3585 4.2364C4.29321 4.17065 4.2021 4.13307 4.10957 4.13307C4.01705 4.13307 3.92593 4.17065 3.86065 4.2364C3.7949 4.30168 3.75732 4.3928 3.75732 4.48532C3.75732 4.57832 3.7949 4.66896 3.86065 4.73425C3.92593 4.8 4.01705 4.83757 4.10957 4.83757Z" fill="white"/>
<path d="M5.6125 4.83757H19.8904C20.0849 4.83757 20.2426 4.67986 20.2426 4.48532C20.2426 4.29079 20.0849 4.13307 19.8904 4.13307H5.6125C5.41797 4.13307 5.26025 4.29079 5.26025 4.48532C5.26025 4.67986 5.41797 4.83757 5.6125 4.83757Z" fill="white"/>
<path d="M21.3934 4.83757H22.1449C22.3394 4.83757 22.4971 4.67986 22.4971 4.48532C22.4971 4.29079 22.3394 4.13307 22.1449 4.13307H21.3934C21.1989 4.13307 21.0411 4.29079 21.0411 4.48532C21.0411 4.67986 21.1989 4.83757 21.3934 4.83757Z" fill="white"/>
<path d="M10.1213 12.7749C9.92676 12.7749 9.76904 12.9327 9.76904 13.1272V13.5029C9.76904 13.6975 9.92676 13.8552 10.1213 13.8552C10.3158 13.8552 10.4735 13.6975 10.4735 13.5029V13.1272C10.4735 12.9327 10.3158 12.7749 10.1213 12.7749Z" fill="white"/>
<path d="M13.8786 12.7749C13.6841 12.7749 13.5264 12.9327 13.5264 13.1272V13.5029C13.5264 13.6975 13.6841 13.8552 13.8786 13.8552C14.0732 13.8552 14.2309 13.6975 14.2309 13.5029V13.1272C14.2309 12.9327 14.0732 12.7749 13.8786 12.7749Z" fill="white"/>
<path d="M22.1448 2.63013H1.85519C0.83225 2.63013 0 3.46238 0 4.48532V19.5147C0 20.5376 0.83225 21.3699 1.85519 21.3699H22.1448C23.1677 21.3699 24 20.5376 24 19.5147V4.48532C24 3.46238 23.1677 2.63013 22.1448 2.63013ZM1.85519 3.33464H22.1448C22.7793 3.33464 23.2955 3.85085 23.2955 4.48532V5.63601H0.704501V4.48532C0.704501 3.85085 1.22071 3.33464 1.85519 3.33464ZM15.3631 14.0396C15.1289 14.3437 14.731 14.4863 14.3489 14.4029L12.0935 13.9103C12.0922 13.91 12.091 13.9099 12.0897 13.9097C12.0824 13.9082 12.075 13.907 12.0675 13.906C12.0632 13.9053 12.0588 13.9046 12.0545 13.9042C12.048 13.9035 12.0413 13.9032 12.0347 13.9029C12.0294 13.9027 12.024 13.9023 12.0187 13.9023C12.0134 13.9023 12.0081 13.9026 12.0028 13.9029C11.9962 13.9031 11.9895 13.9034 11.983 13.9041C11.9786 13.9045 11.9743 13.9052 11.97 13.9059C11.9626 13.9069 11.9551 13.908 11.9479 13.9095C11.9466 13.9097 11.9453 13.9098 11.944 13.9101L9.64978 14.4058C9.28077 14.4855 8.89766 14.354 8.66156 14.0706C8.61802 13.8451 8.59491 13.6123 8.59491 13.3742V12.0535L11.9498 12.7212C11.9725 12.7257 11.9956 12.7279 12.0186 12.7279C12.0418 12.7279 12.0651 12.7256 12.088 12.721L15.4051 12.0543V13.5029C15.4051 13.6845 15.391 13.8635 15.3636 14.039C15.3634 14.0392 15.3632 14.0393 15.3631 14.0396ZM15.4051 11.3357L12.0182 12.0165L8.59491 11.3352V11.2485C8.59491 9.78533 9.78533 8.59491 11.2485 8.59491H12.7515C14.2147 8.59491 15.4051 9.78533 15.4051 11.2485V11.3357ZM9.43552 15.1332C9.55618 15.1332 9.67792 15.1205 9.79853 15.0944L12.0179 14.6149L14.1986 15.0911C14.3205 15.1177 14.4434 15.1307 14.5653 15.1307C14.7221 15.1307 14.8772 15.1088 15.0263 15.0675C14.8505 15.4063 14.6167 15.7172 14.3281 15.9878C13.6342 16.6382 12.7269 16.9624 11.7726 16.9006C10.9611 16.848 10.2303 16.4975 9.6743 15.9561C9.64575 15.9069 9.60498 15.8642 9.55369 15.8329C9.34521 15.6088 9.16518 15.3563 9.01912 15.0817C9.15452 15.1153 9.29425 15.1332 9.43552 15.1332ZM9.43317 16.6855C10.069 17.2119 10.8601 17.5475 11.7271 17.6036C11.8197 17.6097 11.9119 17.6126 12.0037 17.6126C12.9506 17.6126 13.8474 17.2943 14.5797 16.701C14.8713 17.0616 15.2669 17.3239 15.7193 17.4511L17.3103 17.8988C17.969 18.1216 18.411 18.6949 18.411 19.3276V20.6654H16.4854V19.8904C16.4854 19.6959 16.3277 19.5382 16.1331 19.5382C15.9386 19.5382 15.7809 19.6959 15.7809 19.8904V20.6654H8.21918V19.8904C8.21918 19.6959 8.06146 19.5382 7.86693 19.5382C7.67239 19.5382 7.51468 19.6959 7.51468 19.8904V20.6654H5.58904V19.3276C5.58904 18.6949 6.03104 18.1216 6.68971 17.8988L8.28075 17.4511C8.74088 17.3217 9.14076 17.0542 9.43317 16.6855ZM22.1448 20.6654H19.1155V19.3276C19.1155 18.3887 18.4765 17.5448 17.5255 17.2279C17.5202 17.2261 17.5149 17.2244 17.5095 17.2229L15.91 16.7729C15.5799 16.6801 15.2937 16.4828 15.0905 16.2109C15.7422 15.4657 16.1096 14.4993 16.1096 13.5029V11.6271C16.1096 11.6262 16.1096 11.6253 16.1096 11.6245V11.2485C16.1096 9.39687 14.6031 7.89041 12.7515 7.89041H11.2485C9.39687 7.89041 7.89041 9.39687 7.89041 11.2485V11.6251C7.89041 11.626 7.89041 11.6268 7.89041 11.6277V13.3742C7.89041 14.4489 8.28178 15.4361 8.92687 16.1872C8.72299 16.4714 8.43048 16.6772 8.08993 16.773L6.49043 17.223C6.48507 17.2245 6.47972 17.2261 6.47446 17.2279C5.52348 17.5449 4.88454 18.3887 4.88454 19.3276V20.6654H1.85519C1.22071 20.6654 0.704501 20.1491 0.704501 19.5147V6.34051H23.2955V19.5147C23.2955 20.1491 22.7793 20.6654 22.1448 20.6654Z" fill="white"/>
</svg>
