<svg width="40" height="40" viewBox="0 0 40 40" fill="none" xmlns="http://www.w3.org/2000/svg">
<path d="M20.2 28.05C20.2 28.27 20.37 28.45 20.575 28.45H29.825C30.03 28.45 30.2 28.27 30.2 28.05V25.65C30.2 25.43 30.03 25.25 29.825 25.25H20.575C20.37 25.25 20.2 25.43 20.2 25.65V28.05ZM10.455 28.355L20.055 20.305C20.245 20.145 20.245 19.85 20.055 19.69L10.455 11.645C10.397 11.5957 10.3262 11.5641 10.2508 11.5539C10.1754 11.5437 10.0987 11.5554 10.0297 11.5875C9.96073 11.6196 9.90243 11.6708 9.86172 11.7351C9.821 11.7993 9.79958 11.8739 9.8 11.95V15.085C9.8 15.205 9.85 15.315 9.945 15.39L15.435 20L9.945 24.61C9.90031 24.6474 9.86422 24.694 9.83919 24.7467C9.81417 24.7993 9.8008 24.8567 9.8 24.915V28.05C9.8 28.39 10.195 28.575 10.455 28.355ZM38.4 0H1.6C0.715 0 0 0.715 0 1.6V38.4C0 39.285 0.715 40 1.6 40H38.4C39.285 40 40 39.285 40 38.4V1.6C40 0.715 39.285 0 38.4 0ZM36.4 36.4H3.6V3.6H36.4V36.4Z" fill="#20E456"/>
</svg>
