<svg width="24" height="24" viewBox="0 0 24 24" fill="none" xmlns="http://www.w3.org/2000/svg">
<path d="M14 9.65V8.45C14.55 8.21667 15.1125 8.04167 15.6875 7.925C16.2625 7.80833 16.8667 7.75 17.5 7.75C17.9333 7.75 18.3583 7.78333 18.775 7.85C19.1917 7.91667 19.6 8 20 8.1V9.2C19.6 9.05 19.1958 8.9375 18.7875 8.8625C18.3792 8.7875 17.95 8.75 17.5 8.75C16.8667 8.75 16.2583 8.82917 15.675 8.9875C15.0917 9.14583 14.5333 9.36667 14 9.65ZM14 15.15V13.925C14.55 13.6917 15.1125 13.5208 15.6875 13.4125C16.2625 13.3042 16.8667 13.25 17.5 13.25C17.9333 13.25 18.3583 13.2833 18.775 13.35C19.1917 13.4167 19.6 13.5 20 13.6V14.7C19.6 14.55 19.1958 14.4375 18.7875 14.3625C18.3792 14.2875 17.95 14.25 17.5 14.25C16.8667 14.25 16.2583 14.325 15.675 14.475C15.0917 14.625 14.5333 14.85 14 15.15ZM14 12.4V11.2C14.55 10.9667 15.1125 10.7917 15.6875 10.675C16.2625 10.5583 16.8667 10.5 17.5 10.5C17.9333 10.5 18.3583 10.5333 18.775 10.6C19.1917 10.6667 19.6 10.75 20 10.85V11.95C19.6 11.8 19.1958 11.6875 18.7875 11.6125C18.3792 11.5375 17.95 11.5 17.5 11.5C16.8667 11.5 16.2583 11.5792 15.675 11.7375C15.0917 11.8958 14.5333 12.1167 14 12.4ZM6.2 16.5C7.1 16.5 7.97083 16.6042 8.8125 16.8125C9.65417 17.0208 10.4833 17.3333 11.3 17.75V7.075C10.55 6.575 9.7375 6.1875 8.8625 5.9125C7.9875 5.6375 7.1 5.5 6.2 5.5C5.56667 5.5 4.94583 5.57917 4.3375 5.7375C3.72917 5.89583 3.11667 6.09167 2.5 6.325V17.175C3.01667 16.9417 3.60417 16.7708 4.2625 16.6625C4.92083 16.5542 5.56667 16.5 6.2 16.5ZM12.8 17.75C13.6333 17.3333 14.45 17.0208 15.25 16.8125C16.05 16.6042 16.9 16.5 17.8 16.5C18.4333 16.5 19.0875 16.55 19.7625 16.65C20.4375 16.75 21.0167 16.8833 21.5 17.05V6.325C20.9333 6.04167 20.3333 5.83333 19.7 5.7C19.0667 5.56667 18.4333 5.5 17.8 5.5C16.9 5.5 16.0292 5.6375 15.1875 5.9125C14.3458 6.1875 13.55 6.575 12.8 7.075V17.75ZM12.05 20C11.2 19.3667 10.275 18.8792 9.275 18.5375C8.275 18.1958 7.25 18.025 6.2 18.025C5.58333 18.025 4.98333 18.1 4.4 18.25C3.81667 18.4 3.23333 18.5833 2.65 18.8C2.26667 18.9833 1.89583 18.9583 1.5375 18.725C1.17917 18.4917 1 18.1583 1 17.725V6.15C1 5.9 1.05833 5.67083 1.175 5.4625C1.29167 5.25417 1.46667 5.09167 1.7 4.975C2.4 4.64167 3.12917 4.39583 3.8875 4.2375C4.64583 4.07917 5.41667 4 6.2 4C7.25 4 8.27083 4.14167 9.2625 4.425C10.2542 4.70833 11.1833 5.14167 12.05 5.725C12.9 5.14167 13.8125 4.70833 14.7875 4.425C15.7625 4.14167 16.7667 4 17.8 4C18.5833 4 19.35 4.07917 20.1 4.2375C20.85 4.39583 21.575 4.64167 22.275 4.975C22.5083 5.09167 22.6875 5.25417 22.8125 5.4625C22.9375 5.67083 23 5.9 23 6.15V17.725C23 18.1917 22.8125 18.5458 22.4375 18.7875C22.0625 19.0292 21.6917 19.0333 21.325 18.8C20.7583 18.5667 20.1833 18.3792 19.6 18.2375C19.0167 18.0958 18.4167 18.025 17.8 18.025C16.75 18.025 15.7417 18.2 14.775 18.55C13.8083 18.9 12.9 19.3833 12.05 20Z" fill="white"/>
</svg>
