<svg width="291" height="291" viewBox="0 0 291 291" fill="none" xmlns="http://www.w3.org/2000/svg">
<g clip-path="url(#clip0_851_379)">
<path d="M276.563 51.563H187.5V42.188C187.5 18.928 168.577 0 145.313 0C122.049 0 103.125 18.928 103.125 42.188C103.125 45.413 103.523 48.544 104.213 51.563H14.063C6.309 51.563 0 57.872 0 65.625V243.75C0 251.503 6.309 257.813 14.063 257.813H103.126V281.251H70.313V290.626H103.126H187.5H220.313V281.251H187.5V257.813H276.563C284.316 257.813 290.626 251.504 290.626 243.75V65.625C290.625 57.872 284.316 51.563 276.563 51.563ZM178.125 281.25H112.5V257.812H178.125V281.25ZM281.25 243.75C281.25 246.333 279.15 248.438 276.563 248.438H187.5H145.312H103.124H14.063C11.475 248.438 9.375 246.333 9.375 243.75V225H145.312H145.313H281.25V243.75ZM281.252 215.626H9.375V65.626C9.375 63.042 11.475 60.938 14.063 60.938H107.579C114.498 74.804 128.79 84.376 145.313 84.376H159.376V75H145.313C127.223 75 112.5 60.281 112.5 42.188C112.5 24.095 127.223 9.375 145.313 9.375C163.403 9.375 178.126 24.094 178.126 42.188V53.907C178.126 57.784 174.971 60.938 171.095 60.938C167.219 60.938 164.064 57.783 164.064 53.907V42.188C164.064 31.847 155.655 23.438 145.314 23.438C134.973 23.438 126.564 31.847 126.564 42.188C126.564 52.529 134.973 60.938 145.314 60.938C148.952 60.938 152.355 59.897 155.228 58.097C157.089 65.119 163.497 70.313 171.095 70.313C177.615 70.313 183.212 66.46 185.856 60.938H276.564C279.151 60.938 281.252 63.043 281.252 65.626V215.626ZM154.688 42.188C154.688 47.358 150.483 51.563 145.313 51.563C140.143 51.563 135.938 47.358 135.938 42.188C135.938 37.018 140.143 32.813 145.313 32.813C150.483 32.813 154.688 37.017 154.688 42.188Z" fill="#149A54"/>
<path d="M157.031 236.719C157.031 230.26 151.776 225 145.312 225C138.848 225 133.593 230.259 133.593 236.719C133.593 243.179 138.848 248.438 145.312 248.438C151.777 248.438 157.031 243.178 157.031 236.719ZM145.313 239.063C144.024 239.063 142.969 238.013 142.969 236.719C142.969 235.425 144.024 234.375 145.313 234.375C146.602 234.375 147.657 235.425 147.657 236.719C147.657 238.013 146.602 239.063 145.313 239.063Z" fill="#149A54"/>
<path d="M70.313 196.875H220.313V93.75H70.313V196.875ZM85.706 187.5L131.831 137.531L145.228 146.142L159.08 137.831L204.919 187.5H85.706ZM210.938 180.201L167.283 132.909L210.938 106.715V180.201ZM198.704 103.125L145.402 135.108L95.649 103.125H198.704ZM79.687 104.01L123.825 132.384L79.687 180.201V104.01Z" fill="#149A54"/>
</g>
<defs>
<clipPath id="clip0_851_379">
<rect width="290.626" height="290.626" fill="white"/>
</clipPath>
</defs>
</svg>
