<svg width="24" height="24" viewBox="0 0 24 24" fill="none" xmlns="http://www.w3.org/2000/svg">
<path d="M15.2 22C15.2 21.7792 15.0212 21.6 14.8 21.6H13.6V16.4C13.6 16.1792 13.4213 16 13.2001 16H10.8001C10.5789 16 10.4001 16.1792 10.4001 16.4V21.6H9.20007C8.97887 21.6 8.80009 21.7792 8.80009 22V23.2H6.80007C6.57887 23.2 6.40009 23.3792 6.40009 23.6C6.40009 23.8207 6.57887 24 6.80007 24H9.20007C9.42127 24 9.60005 23.8207 9.60005 23.6V22.4H14.8C15.0212 22.4 15.2 22.2208 15.2 22ZM12.8 18.8H12.4C12.1788 18.8 12.0001 18.9792 12.0001 19.2C12.0001 19.4208 12.1788 19.6 12.4 19.6H12.8V21.6H11.2V16.8H12.8V18.8Z" fill="white"/>
<path d="M16.8 19.6C16.8 19.8208 16.9788 20 17.2 20H19.6C19.8212 20 20 19.8208 20 19.6V16.4C20 16.1792 19.8212 16 19.6 16H17.2C16.9788 16 16.8 16.1792 16.8 16.4V19.6ZM17.6 16.8H19.2V17.6H17.6V16.8V16.8ZM17.6 18.4H19.2V19.2H17.6V18.4V18.4Z" fill="white"/>
<path d="M23.2 21.6736V4.40001C23.2 4.17923 23.0212 4.00003 22.8 4.00003C22.5788 4.00003 22.4 4.17923 22.4 4.40001V21.3464C22.1052 21.0084 21.6752 20.8 21.2 20.8C20.6072 20.8 20.0812 21.1208 19.8056 21.618C19.738 21.606 19.6692 21.6 19.6 21.6C18.9384 21.6 18.4 22.1384 18.4 22.8C18.4 23.4616 18.9384 24 19.6 24H22.8C23.4616 24 24 23.4616 24 22.8C24 22.2792 23.6644 21.8396 23.2 21.6736ZM22.8 23.2H19.6C19.3792 23.2 19.2 23.0204 19.2 22.8C19.2 22.5796 19.3792 22.4 19.6 22.4C19.6764 22.4 19.7496 22.422 19.8168 22.4652C19.926 22.536 20.0632 22.5484 20.184 22.4996C20.3048 22.4508 20.3936 22.346 20.4236 22.2192C20.508 21.8548 20.8268 21.6 21.2 21.6C21.5732 21.6 21.892 21.8548 21.9764 22.2192C22.0064 22.346 22.0951 22.4508 22.2159 22.4996C22.3367 22.5484 22.4735 22.536 22.5831 22.4652C22.8435 22.2972 23.1999 22.5032 23.1999 22.8C23.2 23.0204 23.0208 23.2 22.8 23.2Z" fill="white"/>
<path d="M23.6 0.800016H20.4C20.4 0.579234 20.2212 0.400031 20 0.400031C20 0.17925 19.8212 4.6875e-05 19.6 4.6875e-05H18C17.7788 4.6875e-05 17.6 0.17925 17.6 0.400031V0.800016H16.8V0.399984C16.8 0.179203 16.6212 0 16.4 0H14.8004C14.5792 0 14.4004 0.179203 14.4004 0.399984V0.799969H6.39998V0.399984C6.39998 0.179203 6.2212 0 6 0H4.40002C4.17881 0 4.00003 0.179203 4.00003 0.399984V0.799969H0.400031C0.178781 0.800016 0 0.979219 0 1.2C0 1.42078 0.178781 1.59998 0.399984 1.59998H4.39997C4.62117 1.59998 4.79995 1.42078 4.79995 1.2V0.800016H5.59997V1.2C5.59997 1.42078 5.77875 1.59998 5.99995 1.59998H14.8004C15.0216 1.59998 15.2003 1.42078 15.2003 1.2V0.800016H15.9999V1.2C15.9999 1.42078 16.1787 1.59998 16.3999 1.59998H18C18.2212 1.59998 18.4 1.42078 18.4 1.2V0.800016H18.8C18.8 1.0208 18.9787 1.2 19.2 1.2C19.2 1.42078 19.3787 1.59998 19.5999 1.59998H23.1999V2.4H1.2C0.978797 2.4 0.800016 2.5792 0.800016 2.79998V21.6736C0.335578 21.8396 0 22.2792 0 22.8C0 23.4616 0.538406 24 1.2 24H4.40002C5.06161 24 5.60002 23.4616 5.60002 22.8C5.60002 22.1384 5.06161 21.6 4.40002 21.6C4.33083 21.6 4.26202 21.606 4.19442 21.618C3.91884 21.1208 3.39281 20.8 2.80003 20.8C2.32481 20.8 1.89483 21.0084 1.60003 21.3464V3.20002H23.6C23.8212 3.20002 24 3.02081 24 2.80003V1.2C24 0.979219 23.8212 0.800016 23.6 0.800016ZM1.78402 22.4996C1.90481 22.4508 1.99359 22.346 2.02364 22.2192C2.10802 21.8548 2.42686 21.6 2.80003 21.6C3.1732 21.6 3.49205 21.8548 3.57642 22.2192C3.60642 22.346 3.6952 22.4508 3.81605 22.4996C3.93684 22.5484 4.07405 22.536 4.18327 22.4652C4.44445 22.2972 4.80005 22.5032 4.80005 22.8C4.80005 23.0204 4.62084 23.2 4.40006 23.2H1.2C0.979219 23.2 0.800016 23.0204 0.800016 22.8C0.800016 22.5796 0.979219 22.4 1.2 22.4C1.27641 22.4 1.34958 22.422 1.4168 22.4652C1.52602 22.536 1.66322 22.5484 1.78402 22.4996Z" fill="white"/>
<path d="M3.99998 14C3.99998 14.2208 4.17877 14.4 4.39997 14.4H6.79997C7.02117 14.4 7.19995 14.2208 7.19995 14V10.8C7.19995 10.5792 7.02117 10.4 6.79997 10.4H4.39997C4.17877 10.4 3.99998 10.5792 3.99998 10.8V14ZM4.8 11.2H6.39998V12H4.8V11.2ZM4.8 12.8H6.39998V13.6H4.8V12.8Z" fill="white"/>
<path d="M10.8 8.79999H13.2C13.4212 8.79999 13.6 8.62078 13.6 8.4V5.19999C13.6 4.97921 13.4212 4.8 13.2 4.8H10.8C10.5788 4.8 10.4 4.97921 10.4 5.19999V8.4C10.4 8.62078 10.5788 8.79999 10.8 8.79999ZM11.2 5.60002H12.8V6.40003H11.2V5.60002V5.60002ZM11.2 7.2H12.8V8.00002H11.2V7.2V7.2Z" fill="white"/>
<path d="M17.2 23.2H10.8C10.5788 23.2 10.4 23.3792 10.4 23.6C10.4 23.8207 10.5788 23.9999 10.8 23.9999H17.2C17.4212 23.9999 17.6 23.8207 17.6 23.6C17.6 23.3792 17.4212 23.2 17.2 23.2Z" fill="white"/>
<path d="M16.8 14C16.8 14.2208 16.9788 14.4 17.2 14.4H19.6C19.8212 14.4 20 14.2208 20 14V10.8C20 10.5792 19.8212 10.4 19.6 10.4H17.2C16.9788 10.4 16.8 10.5792 16.8 10.8V14ZM17.6 11.2H19.2V12H17.6V11.2V11.2ZM17.6 12.8H19.2V13.6H17.6V12.8V12.8Z" fill="white"/>
<path d="M4.40001 8.79999H6.80001C7.02122 8.79999 7.2 8.62078 7.2 8.4V5.19999C7.2 4.97921 7.02122 4.8 6.80001 4.8H4.40001C4.17881 4.8 4.00003 4.97921 4.00003 5.19999V8.4C3.99998 8.62078 4.17881 8.79999 4.40001 8.79999ZM4.8 5.60002H6.39998V6.40003H4.8V5.60002ZM4.8 7.2H6.39998V8.00002H4.8V7.2Z" fill="white"/>
<path d="M3.99998 19.6C3.99998 19.8208 4.17877 20 4.39997 20H6.79997C7.02117 20 7.19995 19.8208 7.19995 19.6V16.4C7.19995 16.1792 7.02117 16 6.79997 16H4.39997C4.17877 16 3.99998 16.1792 3.99998 16.4V19.6ZM4.8 16.8H6.39998V17.6H4.8V16.8ZM4.8 18.4H6.39998V19.2H4.8V18.4Z" fill="white"/>
<path d="M17.2 8.79999H19.6C19.8212 8.79999 20 8.62078 20 8.4V5.19999C20 4.97921 19.8212 4.8 19.6 4.8H17.2C16.9788 4.8 16.8 4.97921 16.8 5.19999V8.4C16.8 8.62078 16.9788 8.79999 17.2 8.79999ZM17.6 5.60002H19.2V6.40003H17.6V5.60002V5.60002ZM17.6 7.2H19.2V8.00002H17.6V7.2V7.2Z" fill="white"/>
<path d="M10.4 14C10.4 14.2208 10.5788 14.4 10.8 14.4H13.2C13.4212 14.4 13.6 14.2208 13.6 14V10.8C13.6 10.5792 13.4212 10.4 13.2 10.4H10.8C10.5788 10.4 10.4 10.5792 10.4 10.8V14ZM11.2 11.2H12.8V12H11.2V11.2V11.2ZM11.2 12.8H12.8V13.6H11.2V12.8V12.8Z" fill="white"/>
</svg>
