<svg width="24" height="24" viewBox="0 0 24 24" fill="none" xmlns="http://www.w3.org/2000/svg">
<path d="M12 0L0 3.6V10.908C0 16.968 5.115 22.62 12 24C18.885 22.62 24 16.968 24 10.908V3.6L12 0ZM21 10.908C21 15.708 17.175 20.148 12 21.504C6.825 20.148 3 15.72 3 10.908V5.268L12 2.568L21 5.268V10.908Z" fill="#F1E5E5"/>
<path d="M15.8775 7.482C15.8241 7.482 15.7708 7.47 15.7241 7.446C14.4438 6.852 13.3369 6.6 12.01 6.6C10.6897 6.6 9.43614 6.882 8.29591 7.446C8.13588 7.524 7.93584 7.47 7.84248 7.326C7.7558 7.182 7.81581 6.996 7.97584 6.918C9.2161 6.312 10.5764 6 12.01 6C13.4303 6 14.6705 6.282 16.0308 6.912C16.1975 6.99 16.2575 7.17 16.1709 7.314C16.1108 7.422 15.9975 7.482 15.8775 7.482V7.482ZM6.33551 10.632C6.26883 10.632 6.20215 10.614 6.14213 10.578C5.98877 10.482 5.95543 10.296 6.06212 10.158C6.72225 9.318 7.56243 8.658 8.56263 8.196C10.6564 7.224 13.3369 7.218 15.4374 8.19C16.4376 8.652 17.2777 9.306 17.9379 10.14C18.0446 10.272 18.0112 10.464 17.8579 10.56C17.7045 10.656 17.4978 10.626 17.3911 10.488C16.791 9.732 16.0308 9.138 15.1306 8.724C13.2169 7.842 10.7697 7.842 8.86269 8.73C7.95584 9.15 7.19568 9.75 6.59556 10.506C6.54222 10.59 6.4422 10.632 6.33551 10.632V10.632ZM10.503 17.874C10.4163 17.874 10.3297 17.844 10.2696 17.784C9.68953 17.262 9.37613 16.926 8.92937 16.2C8.46928 15.462 8.22923 14.562 8.22923 13.596C8.22923 11.814 9.92291 10.362 12.0033 10.362C14.0838 10.362 15.7774 11.814 15.7774 13.596C15.7774 13.764 15.6307 13.896 15.444 13.896C15.2573 13.896 15.1106 13.764 15.1106 13.596C15.1106 12.144 13.717 10.962 12.0033 10.962C10.2897 10.962 8.89603 12.144 8.89603 13.596C8.89603 14.46 9.10941 15.258 9.51616 15.906C9.94291 16.596 10.2363 16.89 10.7497 17.358C10.8764 17.478 10.8764 17.664 10.7497 17.784C10.6764 17.844 10.5897 17.874 10.503 17.874ZM15.284 16.764C14.4905 16.764 13.7904 16.584 13.2169 16.23C12.2234 15.624 11.6299 14.64 11.6299 13.596C11.6299 13.428 11.7766 13.296 11.9633 13.296C12.15 13.296 12.2967 13.428 12.2967 13.596C12.2967 14.442 12.7768 15.24 13.5903 15.732C14.0638 16.02 14.6172 16.158 15.284 16.158C15.444 16.158 15.7108 16.14 15.9775 16.098C16.1575 16.068 16.3309 16.176 16.3642 16.344C16.3976 16.506 16.2775 16.662 16.0908 16.692C15.7108 16.758 15.3774 16.764 15.284 16.764V16.764ZM13.9437 18C13.9171 18 13.8837 17.994 13.857 17.988C12.7968 17.724 12.1034 17.37 11.3765 16.728C10.443 15.894 9.92958 14.784 9.92958 13.596C9.92958 12.624 10.8498 11.832 11.9833 11.832C13.1169 11.832 14.0371 12.624 14.0371 13.596C14.0371 14.238 14.6572 14.76 15.424 14.76C16.1909 14.76 16.811 14.238 16.811 13.596C16.811 11.334 14.6439 9.498 11.9767 9.498C10.0829 9.498 8.34925 10.446 7.56909 11.916C7.30904 12.402 7.17568 12.972 7.17568 13.596C7.17568 14.064 7.22236 14.802 7.62244 15.762C7.68912 15.918 7.60243 16.092 7.42906 16.146C7.2557 16.206 7.06232 16.122 7.00231 15.972C6.67558 15.186 6.51554 14.406 6.51554 13.596C6.51554 12.876 6.66891 12.222 6.96897 11.652C7.85582 9.978 9.82289 8.892 11.9767 8.892C15.0106 8.892 17.4778 10.998 17.4778 13.59C17.4778 14.562 16.5576 15.354 15.424 15.354C14.2905 15.354 13.3703 14.562 13.3703 13.59C13.3703 12.948 12.7502 12.426 11.9833 12.426C11.2165 12.426 10.5964 12.948 10.5964 13.59C10.5964 14.616 11.0365 15.576 11.8433 16.296C12.4768 16.86 13.0836 17.172 14.0237 17.406C14.2038 17.448 14.3038 17.616 14.2571 17.772C14.2238 17.91 14.0838 18 13.9437 18V18Z" fill="#F1E5E5"/>
</svg>
