<svg width="24" height="24" viewBox="0 0 35 35" fill="none" xmlns="http://www.w3.org/2000/svg">
<path d="M35 29.9975V3.47446C35 3.10462 34.7004 2.80566 34.3312 2.80566H0.668781C0.299614 2.80566 0 3.10462 0 3.47446V18.3525V20.9895V29.9975C0 30.3673 0.299614 30.6663 0.668781 30.6663H9.25861H11.9311H31.3612L32.6934 31.9992C32.8238 32.1289 32.995 32.1951 33.1662 32.1951C33.3374 32.1951 33.5086 32.1289 33.639 31.9992C33.9005 31.737 33.9005 31.315 33.639 31.0535L33.2518 30.6663H34.3312C34.7004 30.6663 35 30.3673 35 29.9975ZM33.6624 29.3287H31.9142L31.2281 28.6418H32.3784C32.7475 28.6418 33.0472 28.3429 33.0472 27.9731V8.17474C33.0472 7.8049 32.7475 7.50595 32.3784 7.50595H2.62363C2.25446 7.50595 1.95485 7.8049 1.95485 8.17474V16.2277V20.6645V27.9731C1.95485 28.3429 2.25446 28.6418 2.62363 28.6418H9.68529H14.1327H29.3361L30.0229 29.3287H11.9311H9.25861H1.33756V20.9895V18.3525V4.14325H33.6624V29.3287ZM19.9732 24.0894C16.7991 24.0894 14.217 21.5072 14.217 18.3331C14.217 16.1508 15.4375 14.2494 17.2311 13.2736H17.5007C17.7635 13.2736 17.9849 13.1191 18.0952 12.8984C18.6844 12.6938 19.3151 12.5774 19.9738 12.5774C23.1479 12.5774 25.73 15.1596 25.73 18.3331C25.73 21.5072 23.1472 24.0894 19.9732 24.0894ZM27.0676 18.3331C27.0676 14.4213 23.8855 11.2398 19.9738 11.2398C18.883 11.2398 17.8545 11.4946 16.9302 11.936H6.15346C5.78429 11.936 5.48468 12.235 5.48468 12.6048C5.48468 12.9747 5.78429 13.2736 6.15346 13.2736H15.0101C14.6851 13.5926 14.3902 13.9424 14.1313 14.319H6.15346C5.78429 14.319 5.48468 14.6179 5.48468 14.9877C5.48468 15.3576 5.78429 15.6565 6.15346 15.6565H13.4077C13.2686 15.9956 13.1589 16.3481 13.074 16.7106H6.15346C5.78429 16.7106 5.48468 17.0095 5.48468 17.3794C5.48468 17.7499 5.78429 18.0481 6.15346 18.0481H12.8934C12.8901 18.1445 12.8794 18.2374 12.8794 18.3351C12.8794 18.5885 12.8941 18.8393 12.9202 19.0875H6.15346C5.78429 19.0875 5.48468 19.3857 5.48468 19.7563C5.48468 20.1261 5.78429 20.425 6.15346 20.425H13.1944C13.3101 20.8002 13.4619 21.1587 13.6358 21.5038H6.15346C5.78429 21.5038 5.48468 21.8028 5.48468 22.1726C5.48468 22.5424 5.78429 22.8414 6.15346 22.8414H14.4965C14.4972 22.8414 14.4978 22.8407 14.4985 22.8407C14.8938 23.3196 15.3532 23.7416 15.8595 24.1034H6.15346C5.78429 24.1034 5.48468 24.4017 5.48468 24.7722C5.48468 25.142 5.78429 25.441 6.15346 25.441H19.4482C19.5023 25.441 19.5498 25.4229 19.6 25.4096C19.725 25.4163 19.8474 25.4283 19.9738 25.4283C21.6886 25.4283 23.2636 24.8157 24.4921 23.7984L27.9979 27.3043H14.132H9.68462H3.29174V20.6645V16.2277V8.84354H31.7083V27.3043H29.8885L25.4371 22.8528C26.455 21.6242 27.0676 20.0485 27.0676 18.3331Z" fill="white"/>
<path d="M31.63 6.51532H32.4098C32.7797 6.51532 33.0786 6.21637 33.0786 5.84653C33.0786 5.47669 32.7797 5.17773 32.4098 5.17773H31.63C31.2609 5.17773 30.9612 5.47669 30.9612 5.84653C30.9612 6.21637 31.2609 6.51532 31.63 6.51532Z" fill="white"/>
<path d="M24.9422 6.51532H25.722C26.0919 6.51532 26.3908 6.21637 26.3908 5.84653C26.3908 5.47669 26.0919 5.17773 25.722 5.17773H24.9422C24.5731 5.17773 24.2734 5.47669 24.2734 5.84653C24.2734 6.21637 24.5731 6.51532 24.9422 6.51532Z" fill="white"/>
<path d="M28.2861 6.51532H29.0659C29.4357 6.51532 29.7347 6.21637 29.7347 5.84653C29.7347 5.47669 29.4357 5.17773 29.0659 5.17773H28.2861C27.9169 5.17773 27.6173 5.47669 27.6173 5.84653C27.6173 6.21637 27.9169 6.51532 28.2861 6.51532Z" fill="white"/>
<path d="M24.9422 18.3334C24.9422 15.5933 22.7132 13.3643 19.9732 13.3643C19.6033 13.3643 19.3044 13.6632 19.3044 14.0331C19.3044 14.4029 19.6033 14.7018 19.9732 14.7018C21.9755 14.7018 23.6046 16.331 23.6046 18.3334C23.6046 18.7032 23.9043 19.0022 24.2734 19.0022C24.6433 19.0022 24.9422 18.7026 24.9422 18.3334Z" fill="white"/>
</svg>
