<svg width="28" height="28" viewBox="0 0 40 40" fill="none" xmlns="http://www.w3.org/2000/svg">
<path d="M5.87982 20.0178L6.36907 18.5042H9.18968L9.69561 20.0178H10.5198H11.3441L8.71016 12.5762H7.80671H6.9065L4.27307 20.0178H5.07876H5.87982ZM7.78818 14.2344L8.77641 17.2222H6.80319L7.78818 14.2344ZM12.4773 12.6244H17.4847V14.2825H12.4773V12.6244ZM12.4773 17.0679H17.4847V18.7261H12.4773V17.0679ZM3.93115 21.5134H17.4847V23.1715H3.93115V21.5134ZM3.93115 25.9602H17.4847V27.6183H3.93115V25.9602ZM40 32.2644V7.39271H37.7136V3.59082L19.9138 7.39271H0V32.2644H16.6837V34.7514H13.3673V36.4096H26.6322V34.7514H23.3159V32.2644H40ZM36.0605 5.64188V7.39456V9.05274V27.1611L20.8293 30.4112V9.05088V8.89151L27.8498 7.39271L36.0605 5.64188ZM1.65817 30.6062V9.05088H19.1711V30.6062H1.65817ZM23.3543 14.239L22.8336 12.6656L33.7537 9.05922L34.2745 10.6326L23.3543 14.239ZM23.3543 18.6863L22.8336 17.1129L33.7537 13.5065L34.2745 15.0799L23.3543 18.6863ZM23.3543 23.1298L22.8336 21.5578L33.7472 17.9515L34.268 19.5248L23.3543 23.1298ZM23.3543 27.5734L22.8336 26.0014L33.7472 22.3932L34.268 23.9666L23.3543 27.5734Z" fill="#05FE2D"/>
</svg>
