<svg width="24" height="24" viewBox="0 0 24 24" fill="none" xmlns="http://www.w3.org/2000/svg">
<path d="M23.4656 7.40161L20.4 5.358V0H3.6V5.358L0.534422 7.40161C0.200391 7.62398 0 7.9988 0 8.4V22.8C0 23.4628 0.537188 24 1.2 24H22.8C23.4628 24 24 23.4628 24 22.8V8.4C24 7.9988 23.7996 7.62398 23.4656 7.40161ZM20.4 6.80002L22.256 8.03723L20.4 9.23841V6.80002ZM4.8 1.2H19.2V10.0148L12 14.6736L4.8 10.0148V1.2ZM3.6 6.80002V9.23841L1.74398 8.03761L3.6 6.80002ZM22.8 22.8H1.2V9.1148L10.8956 15.3884L2.07441 21.096C1.79602 21.2764 1.71642 21.648 1.89642 21.9256C2.01084 22.104 2.20364 22.2 2.40042 22.2C2.51241 22.2 2.62481 22.1684 2.72564 22.104L12 16.1028L21.2744 22.104C21.3752 22.1684 21.4876 22.2 21.5996 22.2C21.7964 22.2 21.9892 22.104 22.104 21.9256C22.284 21.648 22.204 21.2764 21.9261 21.096L13.1048 15.388L22.8 9.1148V22.8Z" fill="white"/>
<path d="M12 2.39999C9.35315 2.39999 7.19995 4.5532 7.19995 7.19999C7.19995 9.84679 9.35315 12 12 12C14.6467 12 16.8 9.84679 16.8 7.19999C16.8 4.5532 14.6467 2.39999 12 2.39999ZM8.39995 7.19999C8.39995 5.2116 10.0116 3.59999 12 3.59999C12.7771 3.59999 13.4924 3.85199 14.0807 4.27078L9.07073 9.28078C8.65195 8.6924 8.39995 7.97718 8.39995 7.19999ZM12 10.8C11.2228 10.8 10.5075 10.548 9.91917 10.1292L14.9292 5.11921C15.348 5.70763 15.6 6.42281 15.6 7.19999C15.6 9.18838 13.9883 10.8 12 10.8Z" fill="white"/>
</svg>
