<svg width="90" height="90" viewBox="0 0 200 200" fill="none" xmlns="http://www.w3.org/2000/svg">
<path d="M100 141.667C101.944 141.667 103.576 141.007 104.896 139.687C106.215 138.368 106.875 136.736 106.875 134.792C106.875 132.847 106.215 131.215 104.896 129.896C103.576 128.576 101.944 127.917 100 127.917C98.0555 127.917 96.4236 128.576 95.1041 129.896C93.7847 131.215 93.125 132.847 93.125 134.792C93.125 136.736 93.7847 138.368 95.1041 139.687C96.4236 141.007 98.0555 141.667 100 141.667ZM94.375 109.792H106.875V57.0832H94.375V109.792ZM100 183.333C88.6111 183.333 77.8472 181.146 67.7083 176.771C57.5694 172.396 48.7152 166.423 41.1458 158.854C33.5763 151.285 27.6041 142.43 23.2291 132.292C18.8541 122.153 16.6666 111.319 16.6666 99.7915C16.6666 88.4026 18.8541 77.6387 23.2291 67.4998C27.6041 57.361 33.5763 48.5415 41.1458 41.0415C48.7152 33.5415 57.5694 27.604 67.7083 23.229C77.8472 18.854 88.6805 16.6665 100.208 16.6665C111.597 16.6665 122.361 18.854 132.5 23.229C142.639 27.604 151.458 33.5415 158.958 41.0415C166.458 48.5415 172.396 57.361 176.771 67.4998C181.146 77.6387 183.333 88.4721 183.333 99.9998C183.333 111.389 181.146 122.153 176.771 132.292C172.396 142.43 166.458 151.285 158.958 158.854C151.458 166.423 142.639 172.396 132.5 176.771C122.361 181.146 111.528 183.333 100 183.333ZM100.208 170.833C119.792 170.833 136.458 163.923 150.208 150.104C163.958 136.285 170.833 119.514 170.833 99.7915C170.833 80.2082 163.958 63.5415 150.208 49.7915C136.458 36.0415 119.722 29.1665 100 29.1665C80.4166 29.1665 63.7152 36.0415 49.8958 49.7915C36.0764 63.5415 29.1666 80.2776 29.1666 99.9998C29.1666 119.583 36.0764 136.285 49.8958 150.104C63.7152 163.923 80.4861 170.833 100.208 170.833Z" fill="#20E456"/>
</svg>
