<svg width="40" height="40" viewBox="0 0 40 40" fill="none" xmlns="http://www.w3.org/2000/svg">
<path d="M29.1919 21.4331C29.4361 21.6772 29.4361 22.0727 29.1919 22.3168C28.9478 22.561 28.5523 22.561 28.3081 22.3168L20 14.0088L11.6919 22.3168C11.4478 22.561 11.0523 22.561 10.8081 22.3168C10.6861 22.1948 10.625 22.0349 10.625 21.875C10.625 21.7151 10.6861 21.5552 10.8081 21.4331L19.5581 12.6831C19.8023 12.439 20.1978 12.439 20.4419 12.6831L29.1919 21.4331Z" fill="white"/>
<path d="M20 0C8.95431 0 0 8.95431 0 20C0 31.0457 8.95431 40 20 40C31.0457 40 40 31.0457 40 20C40 8.95431 31.0457 0 20 0ZM20 1.25C30.3388 1.25 38.75 9.66125 38.75 20C38.75 30.3388 30.3388 38.75 20 38.75C9.66119 38.75 1.25 30.3388 1.25 20C1.25 9.66125 9.66119 1.25 20 1.25Z" fill="white"/>
</svg>
